<svg width="12" height="12" viewBox="0 0 12 12" fill="none" xmlns="http://www.w3.org/2000/svg">
<g clip-path="url(#clip0_115_73)">
<path d="M11.2505 6.1166C11.2505 5.68494 11.2148 5.36994 11.1374 5.04327H6.10768V6.99158H9.06003C9.00053 7.47577 8.6791 8.20494 7.9648 8.69491L7.95479 8.76014L9.54511 9.9675L9.65529 9.97827C10.6672 9.06243 11.2505 7.71492 11.2505 6.1166" fill="#4285F4"/>
<path d="M6.10733 11.25C7.55374 11.25 8.768 10.7833 9.65493 9.97833L7.96446 8.69495C7.51209 9.00413 6.90493 9.21996 6.10733 9.21996C4.69068 9.21996 3.48831 8.30414 3.0597 7.0383L2.99688 7.04353L1.34325 8.29771L1.32162 8.35662C2.20256 10.0716 4.01209 11.25 6.10733 11.25Z" fill="#34A853"/>
<path d="M3.06002 7.0383C2.94692 6.71164 2.88147 6.36161 2.88147 5.99996C2.88147 5.63827 2.94692 5.28829 3.05407 4.96162L3.05107 4.89205L1.37671 3.61774L1.32193 3.64327C0.958854 4.35495 0.750519 5.15413 0.750519 5.99996C0.750519 6.84579 0.958854 7.64493 1.32193 8.35661L3.06002 7.0383" fill="#FBBC05"/>
<path d="M6.10736 2.77999C7.1133 2.77999 7.79186 3.20582 8.17878 3.56167L9.69068 2.115C8.76214 1.26917 7.55377 0.75 6.10736 0.75C4.0121 0.75 2.20257 1.92832 1.32162 3.64331L3.05376 4.96166C3.48833 3.69583 4.6907 2.77999 6.10736 2.77999" fill="#EB4335"/>
</g>
<defs>
<clipPath id="clip0_115_73">
<rect width="12" height="12" fill="white"/>
</clipPath>
</defs>
</svg>
