<svg xmlns="http://www.w3.org/2000/svg" version="1.1" xmlns:xlink="http://www.w3.org/1999/xlink" xmlns:svgjs="http://svgjs.com/svgjs" width="1400" height="376" preserveAspectRatio="none" viewBox="0 0 1400 376"><g mask="url(&quot;#SvgjsMask2064&quot;)" fill="none"><rect width="1400" height="376" x="0" y="0" fill="url(#SvgjsLinearGradient2065)"></rect><path d="M-102.23 248.73L-102.23 248.73" stroke="rgba(68, 0, 68, 1)" stroke-width="1.5"></path><path d="M-102.23 248.73L-92.74 376.09" stroke="rgba(68, 0, 68, 1)" stroke-width="1.5"></path><path d="M-102.23 248.73L104.27 261.16" stroke="rgba(68, 0, 68, 1)" stroke-width="1.5"></path><path d="M-102.23 248.73L77.47 401.94" stroke="rgba(68, 0, 68, 1)" stroke-width="1.5"></path><path d="M-102.23 248.73L-46.54 508.9" stroke="rgba(68, 0, 68, 1)" stroke-width="1.5"></path><path d="M-102.23 248.73L42.1 521.59" stroke="rgba(68, 0, 68, 1)" stroke-width="1.5"></path><path d="M-102.23 248.73L245.68 253.81" stroke="rgba(68, 0, 68, 1)" stroke-width="1.5"></path><path d="M-92.74 376.09L-92.74 376.09" stroke="rgba(68, 0, 68, 1)" stroke-width="1.5"></path><path d="M-92.74 376.09L-46.54 508.9" stroke="rgba(68, 0, 68, 1)" stroke-width="1.5"></path><path d="M-92.74 376.09L77.47 401.94" stroke="rgba(68, 0, 68, 1)" stroke-width="1.5"></path><path d="M-46.54 508.9L-46.54 508.9" stroke="rgba(68, 0, 68, 1)" stroke-width="1.5"></path><path d="M-46.54 508.9L42.1 521.59" stroke="rgba(68, 0, 68, 1)" stroke-width="1.5"></path><path d="M104.27 261.16L104.27 261.16" stroke="rgba(68, 0, 68, 1)" stroke-width="1.5"></path><path d="M104.27 261.16L245.68 253.81" stroke="rgba(68, 0, 68, 1)" stroke-width="1.5"></path><path d="M104.27 261.16L77.47 401.94" stroke="rgba(68, 0, 68, 1)" stroke-width="1.5"></path><path d="M77.47 401.94L77.47 401.94" stroke="rgba(68, 0, 68, 1)" stroke-width="1.5"></path><path d="M77.47 401.94L42.1 521.59" stroke="rgba(68, 0, 68, 1)" stroke-width="1.5"></path><path d="M77.47 401.94L226.55 402.98" stroke="rgba(68, 0, 68, 1)" stroke-width="1.5"></path><path d="M77.47 401.94L-46.54 508.9" stroke="rgba(68, 0, 68, 1)" stroke-width="1.5"></path><path d="M42.1 521.59L42.1 521.59" stroke="rgba(68, 0, 68, 1)" stroke-width="1.5"></path><path d="M42.1 521.59L218.25 554.55" stroke="rgba(68, 0, 68, 1)" stroke-width="1.5"></path><path d="M42.1 521.59L-92.74 376.09" stroke="rgba(68, 0, 68, 1)" stroke-width="1.5"></path><path d="M42.1 521.59L226.55 402.98" stroke="rgba(68, 0, 68, 1)" stroke-width="1.5"></path><path d="M245.68 253.81L245.68 253.81" stroke="rgba(68, 0, 68, 1)" stroke-width="1.5"></path><path d="M245.68 253.81L354.97 339.08" stroke="rgba(68, 0, 68, 1)" stroke-width="1.5"></path><path d="M226.55 402.98L226.55 402.98" stroke="rgba(68, 0, 68, 1)" stroke-width="1.5"></path><path d="M226.55 402.98L354.97 339.08" stroke="rgba(68, 0, 68, 1)" stroke-width="1.5"></path><path d="M226.55 402.98L245.68 253.81" stroke="rgba(68, 0, 68, 1)" stroke-width="1.5"></path><path d="M218.25 554.55L218.25 554.55" stroke="rgba(68, 0, 68, 1)" stroke-width="1.5"></path><path d="M218.25 554.55L351.8 503.99" stroke="rgba(68, 0, 68, 1)" stroke-width="1.5"></path><path d="M388.18 258.31L388.18 258.31" stroke="rgba(68, 0, 68, 1)" stroke-width="1.5"></path><path d="M388.18 258.31L354.97 339.08" stroke="rgba(68, 0, 68, 1)" stroke-width="1.5"></path><path d="M388.18 258.31L490.79 240.63" stroke="rgba(68, 0, 68, 1)" stroke-width="1.5"></path><path d="M388.18 258.31L245.68 253.81" stroke="rgba(68, 0, 68, 1)" stroke-width="1.5"></path><path d="M354.97 339.08L354.97 339.08" stroke="rgba(68, 0, 68, 1)" stroke-width="1.5"></path><path d="M354.97 339.08L351.8 503.99" stroke="rgba(68, 0, 68, 1)" stroke-width="1.5"></path><path d="M351.8 503.99L351.8 503.99" stroke="rgba(68, 0, 68, 1)" stroke-width="1.5"></path><path d="M351.8 503.99L226.55 402.98" stroke="rgba(68, 0, 68, 1)" stroke-width="1.5"></path><path d="M351.8 503.99L520.08 559.57" stroke="rgba(68, 0, 68, 1)" stroke-width="1.5"></path><path d="M351.8 503.99L550.11 380.31" stroke="rgba(68, 0, 68, 1)" stroke-width="1.5"></path><path d="M351.8 503.99L388.18 258.31" stroke="rgba(68, 0, 68, 1)" stroke-width="1.5"></path><path d="M490.79 240.63L490.79 240.63" stroke="rgba(68, 0, 68, 1)" stroke-width="1.5"></path><path d="M490.79 240.63L550.11 380.31" stroke="rgba(68, 0, 68, 1)" stroke-width="1.5"></path><path d="M490.79 240.63L354.97 339.08" stroke="rgba(68, 0, 68, 1)" stroke-width="1.5"></path><path d="M490.79 240.63L685.28 215.75" stroke="rgba(68, 0, 68, 1)" stroke-width="1.5"></path><path d="M490.79 240.63L245.68 253.81" stroke="rgba(68, 0, 68, 1)" stroke-width="1.5"></path><path d="M490.79 240.63L709.19 380.48" stroke="rgba(68, 0, 68, 1)" stroke-width="1.5"></path><path d="M550.11 380.31L550.11 380.31" stroke="rgba(68, 0, 68, 1)" stroke-width="1.5"></path><path d="M550.11 380.31L709.19 380.48" stroke="rgba(68, 0, 68, 1)" stroke-width="1.5"></path><path d="M550.11 380.31L520.08 559.57" stroke="rgba(68, 0, 68, 1)" stroke-width="1.5"></path><path d="M550.11 380.31L354.97 339.08" stroke="rgba(68, 0, 68, 1)" stroke-width="1.5"></path><path d="M550.11 380.31L388.18 258.31" stroke="rgba(68, 0, 68, 1)" stroke-width="1.5"></path><path d="M520.08 559.57L520.08 559.57" stroke="rgba(68, 0, 68, 1)" stroke-width="1.5"></path><path d="M520.08 559.57L694.53 537.55" stroke="rgba(68, 0, 68, 1)" stroke-width="1.5"></path><path d="M685.28 215.75L685.28 215.75" stroke="rgba(68, 0, 68, 1)" stroke-width="1.5"></path><path d="M685.28 215.75L834.05 223.7" stroke="rgba(68, 0, 68, 1)" stroke-width="1.5"></path><path d="M685.28 215.75L800.76 106.23" stroke="rgba(68, 0, 68, 1)" stroke-width="1.5"></path><path d="M685.28 215.75L709.19 380.48" stroke="rgba(68, 0, 68, 1)" stroke-width="1.5"></path><path d="M709.19 380.48L709.19 380.48" stroke="rgba(68, 0, 68, 1)" stroke-width="1.5"></path><path d="M709.19 380.48L818.58 386.99" stroke="rgba(68, 0, 68, 1)" stroke-width="1.5"></path><path d="M709.19 380.48L810.41 492.81" stroke="rgba(68, 0, 68, 1)" stroke-width="1.5"></path><path d="M709.19 380.48L694.53 537.55" stroke="rgba(68, 0, 68, 1)" stroke-width="1.5"></path><path d="M709.19 380.48L834.05 223.7" stroke="rgba(68, 0, 68, 1)" stroke-width="1.5"></path><path d="M694.53 537.55L694.53 537.55" stroke="rgba(68, 0, 68, 1)" stroke-width="1.5"></path><path d="M694.53 537.55L810.41 492.81" stroke="rgba(68, 0, 68, 1)" stroke-width="1.5"></path><path d="M694.53 537.55L818.58 386.99" stroke="rgba(68, 0, 68, 1)" stroke-width="1.5"></path><path d="M800.76 106.23L800.76 106.23" stroke="rgba(68, 0, 68, 1)" stroke-width="1.5"></path><path d="M800.76 106.23L834.05 223.7" stroke="rgba(68, 0, 68, 1)" stroke-width="1.5"></path><path d="M800.76 106.23L941.65 217.43" stroke="rgba(68, 0, 68, 1)" stroke-width="1.5"></path><path d="M800.76 106.23L990.96 62.11" stroke="rgba(68, 0, 68, 1)" stroke-width="1.5"></path><path d="M800.76 106.23L972.89 -112.01" stroke="rgba(68, 0, 68, 1)" stroke-width="1.5"></path><path d="M834.05 223.7L834.05 223.7" stroke="rgba(68, 0, 68, 1)" stroke-width="1.5"></path><path d="M834.05 223.7L941.65 217.43" stroke="rgba(68, 0, 68, 1)" stroke-width="1.5"></path><path d="M818.58 386.99L818.58 386.99" stroke="rgba(68, 0, 68, 1)" stroke-width="1.5"></path><path d="M818.58 386.99L810.41 492.81" stroke="rgba(68, 0, 68, 1)" stroke-width="1.5"></path><path d="M818.58 386.99L834.05 223.7" stroke="rgba(68, 0, 68, 1)" stroke-width="1.5"></path><path d="M818.58 386.99L982.23 352.11" stroke="rgba(68, 0, 68, 1)" stroke-width="1.5"></path><path d="M818.58 386.99L941.65 217.43" stroke="rgba(68, 0, 68, 1)" stroke-width="1.5"></path><path d="M810.41 492.81L810.41 492.81" stroke="rgba(68, 0, 68, 1)" stroke-width="1.5"></path><path d="M972.89 -112.01L972.89 -112.01" stroke="rgba(68, 0, 68, 1)" stroke-width="1.5"></path><path d="M972.89 -112.01L1146.08 -97.16" stroke="rgba(68, 0, 68, 1)" stroke-width="1.5"></path><path d="M972.89 -112.01L990.96 62.11" stroke="rgba(68, 0, 68, 1)" stroke-width="1.5"></path><path d="M990.96 62.11L990.96 62.11" stroke="rgba(68, 0, 68, 1)" stroke-width="1.5"></path><path d="M990.96 62.11L941.65 217.43" stroke="rgba(68, 0, 68, 1)" stroke-width="1.5"></path><path d="M990.96 62.11L1156.52 98.05" stroke="rgba(68, 0, 68, 1)" stroke-width="1.5"></path><path d="M941.65 217.43L941.65 217.43" stroke="rgba(68, 0, 68, 1)" stroke-width="1.5"></path><path d="M941.65 217.43L982.23 352.11" stroke="rgba(68, 0, 68, 1)" stroke-width="1.5"></path><path d="M941.65 217.43L1132.68 204.5" stroke="rgba(68, 0, 68, 1)" stroke-width="1.5"></path><path d="M982.23 352.11L982.23 352.11" stroke="rgba(68, 0, 68, 1)" stroke-width="1.5"></path><path d="M1006.39 529.22L1006.39 529.22" stroke="rgba(68, 0, 68, 1)" stroke-width="1.5"></path><path d="M1006.39 529.22L1090.43 494.97" stroke="rgba(68, 0, 68, 1)" stroke-width="1.5"></path><path d="M1006.39 529.22L1120.9 401.28" stroke="rgba(68, 0, 68, 1)" stroke-width="1.5"></path><path d="M1006.39 529.22L982.23 352.11" stroke="rgba(68, 0, 68, 1)" stroke-width="1.5"></path><path d="M1146.08 -97.16L1146.08 -97.16" stroke="rgba(68, 0, 68, 1)" stroke-width="1.5"></path><path d="M1146.08 -97.16L1299.52 -47.13" stroke="rgba(68, 0, 68, 1)" stroke-width="1.5"></path><path d="M1146.08 -97.16L1156.52 98.05" stroke="rgba(68, 0, 68, 1)" stroke-width="1.5"></path><path d="M1156.52 98.05L1156.52 98.05" stroke="rgba(68, 0, 68, 1)" stroke-width="1.5"></path><path d="M1156.52 98.05L1132.68 204.5" stroke="rgba(68, 0, 68, 1)" stroke-width="1.5"></path><path d="M1156.52 98.05L1301.16 47.82" stroke="rgba(68, 0, 68, 1)" stroke-width="1.5"></path><path d="M1132.68 204.5L1132.68 204.5" stroke="rgba(68, 0, 68, 1)" stroke-width="1.5"></path><path d="M1132.68 204.5L1297.73 242.41" stroke="rgba(68, 0, 68, 1)" stroke-width="1.5"></path><path d="M1120.9 401.28L1120.9 401.28" stroke="rgba(68, 0, 68, 1)" stroke-width="1.5"></path><path d="M1120.9 401.28L1090.43 494.97" stroke="rgba(68, 0, 68, 1)" stroke-width="1.5"></path><path d="M1090.43 494.97L1090.43 494.97" stroke="rgba(68, 0, 68, 1)" stroke-width="1.5"></path><path d="M1090.43 494.97L1254.94 550.81" stroke="rgba(68, 0, 68, 1)" stroke-width="1.5"></path><path d="M1090.43 494.97L982.23 352.11" stroke="rgba(68, 0, 68, 1)" stroke-width="1.5"></path><path d="M1090.43 494.97L1259.65 401.86" stroke="rgba(68, 0, 68, 1)" stroke-width="1.5"></path><path d="M1090.43 494.97L810.41 492.81" stroke="rgba(68, 0, 68, 1)" stroke-width="1.5"></path><path d="M1299.52 -47.13L1299.52 -47.13" stroke="rgba(68, 0, 68, 1)" stroke-width="1.5"></path><path d="M1299.52 -47.13L1301.16 47.82" stroke="rgba(68, 0, 68, 1)" stroke-width="1.5"></path><path d="M1299.52 -47.13L1451.21 -89.25" stroke="rgba(68, 0, 68, 1)" stroke-width="1.5"></path><path d="M1301.16 47.82L1301.16 47.82" stroke="rgba(68, 0, 68, 1)" stroke-width="1.5"></path><path d="M1301.16 47.82L1450.93 46.13" stroke="rgba(68, 0, 68, 1)" stroke-width="1.5"></path><path d="M1297.73 242.41L1297.73 242.41" stroke="rgba(68, 0, 68, 1)" stroke-width="1.5"></path><path d="M1297.73 242.41L1407.44 200.39" stroke="rgba(68, 0, 68, 1)" stroke-width="1.5"></path><path d="M1297.73 242.41L1259.65 401.86" stroke="rgba(68, 0, 68, 1)" stroke-width="1.5"></path><path d="M1259.65 401.86L1259.65 401.86" stroke="rgba(68, 0, 68, 1)" stroke-width="1.5"></path><path d="M1259.65 401.86L1120.9 401.28" stroke="rgba(68, 0, 68, 1)" stroke-width="1.5"></path><path d="M1259.65 401.86L1254.94 550.81" stroke="rgba(68, 0, 68, 1)" stroke-width="1.5"></path><path d="M1259.65 401.86L1416.91 404.08" stroke="rgba(68, 0, 68, 1)" stroke-width="1.5"></path><path d="M1254.94 550.81L1254.94 550.81" stroke="rgba(68, 0, 68, 1)" stroke-width="1.5"></path><path d="M1254.94 550.81L1452.09 526.91" stroke="rgba(68, 0, 68, 1)" stroke-width="1.5"></path><path d="M1254.94 550.81L1120.9 401.28" stroke="rgba(68, 0, 68, 1)" stroke-width="1.5"></path><path d="M1451.21 -89.25L1451.21 -89.25" stroke="rgba(68, 0, 68, 1)" stroke-width="1.5"></path><path d="M1451.21 -89.25L1560.77 -110.75" stroke="rgba(68, 0, 68, 1)" stroke-width="1.5"></path><path d="M1451.21 -89.25L1450.93 46.13" stroke="rgba(68, 0, 68, 1)" stroke-width="1.5"></path><path d="M1450.93 46.13L1450.93 46.13" stroke="rgba(68, 0, 68, 1)" stroke-width="1.5"></path><path d="M1450.93 46.13L1572.49 39.18" stroke="rgba(68, 0, 68, 1)" stroke-width="1.5"></path><path d="M1450.93 46.13L1407.44 200.39" stroke="rgba(68, 0, 68, 1)" stroke-width="1.5"></path><path d="M1450.93 46.13L1299.52 -47.13" stroke="rgba(68, 0, 68, 1)" stroke-width="1.5"></path><path d="M1407.44 200.39L1407.44 200.39" stroke="rgba(68, 0, 68, 1)" stroke-width="1.5"></path><path d="M1407.44 200.39L1301.16 47.82" stroke="rgba(68, 0, 68, 1)" stroke-width="1.5"></path><path d="M1407.44 200.39L1594.07 257.07" stroke="rgba(68, 0, 68, 1)" stroke-width="1.5"></path><path d="M1407.44 200.39L1416.91 404.08" stroke="rgba(68, 0, 68, 1)" stroke-width="1.5"></path><path d="M1416.91 404.08L1416.91 404.08" stroke="rgba(68, 0, 68, 1)" stroke-width="1.5"></path><path d="M1416.91 404.08L1452.09 526.91" stroke="rgba(68, 0, 68, 1)" stroke-width="1.5"></path><path d="M1416.91 404.08L1608.07 386.84" stroke="rgba(68, 0, 68, 1)" stroke-width="1.5"></path><path d="M1416.91 404.08L1297.73 242.41" stroke="rgba(68, 0, 68, 1)" stroke-width="1.5"></path><path d="M1452.09 526.91L1452.09 526.91" stroke="rgba(68, 0, 68, 1)" stroke-width="1.5"></path><path d="M1452.09 526.91L1606.47 531.4" stroke="rgba(68, 0, 68, 1)" stroke-width="1.5"></path><path d="M1452.09 526.91L1608.07 386.84" stroke="rgba(68, 0, 68, 1)" stroke-width="1.5"></path><path d="M1452.09 526.91L1259.65 401.86" stroke="rgba(68, 0, 68, 1)" stroke-width="1.5"></path><path d="M1560.77 -110.75L1560.77 -110.75" stroke="rgba(68, 0, 68, 1)" stroke-width="1.5"></path><path d="M1560.77 -110.75L1572.49 39.18" stroke="rgba(68, 0, 68, 1)" stroke-width="1.5"></path><path d="M1560.77 -110.75L1450.93 46.13" stroke="rgba(68, 0, 68, 1)" stroke-width="1.5"></path><path d="M1560.77 -110.75L1299.52 -47.13" stroke="rgba(68, 0, 68, 1)" stroke-width="1.5"></path><path d="M1560.77 -110.75L1301.16 47.82" stroke="rgba(68, 0, 68, 1)" stroke-width="1.5"></path><path d="M1572.49 39.18L1572.49 39.18" stroke="rgba(68, 0, 68, 1)" stroke-width="1.5"></path><path d="M1572.49 39.18L1451.21 -89.25" stroke="rgba(68, 0, 68, 1)" stroke-width="1.5"></path><path d="M1594.07 257.07L1594.07 257.07" stroke="rgba(68, 0, 68, 1)" stroke-width="1.5"></path><path d="M1594.07 257.07L1608.07 386.84" stroke="rgba(68, 0, 68, 1)" stroke-width="1.5"></path><path d="M1594.07 257.07L1572.49 39.18" stroke="rgba(68, 0, 68, 1)" stroke-width="1.5"></path><path d="M1608.07 386.84L1608.07 386.84" stroke="rgba(68, 0, 68, 1)" stroke-width="1.5"></path><path d="M1608.07 386.84L1606.47 531.4" stroke="rgba(68, 0, 68, 1)" stroke-width="1.5"></path><path d="M1608.07 386.84L1407.44 200.39" stroke="rgba(68, 0, 68, 1)" stroke-width="1.5"></path><path d="M1606.47 531.4L1606.47 531.4" stroke="rgba(68, 0, 68, 1)" stroke-width="1.5"></path><circle r="5" cx="-102.23" cy="248.73" fill="rgba(68, 0, 68, 1)"></circle><circle r="5" cx="-92.74" cy="376.09" fill="rgba(68, 0, 68, 1)"></circle><circle r="5" cx="-46.54" cy="508.9" fill="rgba(68, 0, 68, 1)"></circle><circle r="5" cx="104.27" cy="261.16" fill="rgba(68, 0, 68, 1)"></circle><circle r="5" cx="77.47" cy="401.94" fill="rgba(68, 0, 68, 1)"></circle><circle r="5" cx="42.1" cy="521.59" fill="rgba(68, 0, 68, 1)"></circle><circle r="5" cx="245.68" cy="253.81" fill="rgba(68, 0, 68, 1)"></circle><circle r="5" cx="226.55" cy="402.98" fill="rgba(68, 0, 68, 1)"></circle><circle r="5" cx="218.25" cy="554.55" fill="rgba(68, 0, 68, 1)"></circle><circle r="5" cx="388.18" cy="258.31" fill="rgba(68, 0, 68, 1)"></circle><circle r="5" cx="354.97" cy="339.08" fill="rgba(68, 0, 68, 1)"></circle><circle r="5" cx="351.8" cy="503.99" fill="rgba(68, 0, 68, 1)"></circle><circle r="5" cx="490.79" cy="240.63" fill="rgba(68, 0, 68, 1)"></circle><circle r="5" cx="550.11" cy="380.31" fill="rgba(68, 0, 68, 1)"></circle><circle r="5" cx="520.08" cy="559.57" fill="rgba(68, 0, 68, 1)"></circle><circle r="5" cx="685.28" cy="215.75" fill="rgba(68, 0, 68, 1)"></circle><circle r="5" cx="709.19" cy="380.48" fill="rgba(68, 0, 68, 1)"></circle><circle r="5" cx="694.53" cy="537.55" fill="rgba(68, 0, 68, 1)"></circle><circle r="5" cx="800.76" cy="106.23" fill="rgba(68, 0, 68, 1)"></circle><circle r="5" cx="834.05" cy="223.7" fill="rgba(68, 0, 68, 1)"></circle><circle r="5" cx="818.58" cy="386.99" fill="rgba(68, 0, 68, 1)"></circle><circle r="5" cx="810.41" cy="492.81" fill="rgba(68, 0, 68, 1)"></circle><circle r="5" cx="972.89" cy="-112.01" fill="rgba(68, 0, 68, 1)"></circle><circle r="5" cx="990.96" cy="62.11" fill="rgba(68, 0, 68, 1)"></circle><circle r="5" cx="941.65" cy="217.43" fill="rgba(68, 0, 68, 1)"></circle><circle r="5" cx="982.23" cy="352.11" fill="rgba(68, 0, 68, 1)"></circle><circle r="5" cx="1006.39" cy="529.22" fill="rgba(68, 0, 68, 1)"></circle><circle r="5" cx="1146.08" cy="-97.16" fill="rgba(68, 0, 68, 1)"></circle><circle r="5" cx="1156.52" cy="98.05" fill="rgba(68, 0, 68, 1)"></circle><circle r="5" cx="1132.68" cy="204.5" fill="rgba(68, 0, 68, 1)"></circle><circle r="5" cx="1120.9" cy="401.28" fill="rgba(68, 0, 68, 1)"></circle><circle r="5" cx="1090.43" cy="494.97" fill="rgba(68, 0, 68, 1)"></circle><circle r="5" cx="1299.52" cy="-47.13" fill="rgba(68, 0, 68, 1)"></circle><circle r="5" cx="1301.16" cy="47.82" fill="rgba(68, 0, 68, 1)"></circle><circle r="5" cx="1297.73" cy="242.41" fill="rgba(68, 0, 68, 1)"></circle><circle r="5" cx="1259.65" cy="401.86" fill="rgba(68, 0, 68, 1)"></circle><circle r="5" cx="1254.94" cy="550.81" fill="rgba(68, 0, 68, 1)"></circle><circle r="5" cx="1451.21" cy="-89.25" fill="rgba(68, 0, 68, 1)"></circle><circle r="5" cx="1450.93" cy="46.13" fill="rgba(68, 0, 68, 1)"></circle><circle r="5" cx="1407.44" cy="200.39" fill="rgba(68, 0, 68, 1)"></circle><circle r="5" cx="1416.91" cy="404.08" fill="rgba(68, 0, 68, 1)"></circle><circle r="5" cx="1452.09" cy="526.91" fill="rgba(68, 0, 68, 1)"></circle><circle r="5" cx="1560.77" cy="-110.75" fill="rgba(68, 0, 68, 1)"></circle><circle r="5" cx="1572.49" cy="39.18" fill="rgba(68, 0, 68, 1)"></circle><circle r="5" cx="1594.07" cy="257.07" fill="rgba(68, 0, 68, 1)"></circle><circle r="5" cx="1608.07" cy="386.84" fill="rgba(68, 0, 68, 1)"></circle><circle r="5" cx="1606.47" cy="531.4" fill="rgba(68, 0, 68, 1)"></circle><path d="M495.57 492.44L495.57 492.44" stroke="hsl(300, 100%, 21.7%)" stroke-width="1.5"></path><path d="M495.57 492.44L502.86 371.93" stroke="hsl(300, 100%, 21.7%)" stroke-width="1.5"></path><path d="M495.57 492.44L349.88 536.63" stroke="hsl(300, 100%, 21.7%)" stroke-width="1.5"></path><path d="M495.57 492.44L654.93 492.32" stroke="hsl(300, 100%, 21.7%)" stroke-width="1.5"></path><path d="M699 250.96L699 250.96" stroke="hsl(300, 100%, 21.7%)" stroke-width="1.5"></path><path d="M699 250.96L695.66 373.35" stroke="hsl(300, 100%, 21.7%)" stroke-width="1.5"></path><path d="M699 250.96L851.92 368.73" stroke="hsl(300, 100%, 21.7%)" stroke-width="1.5"></path><path d="M699 250.96L502.86 371.93" stroke="hsl(300, 100%, 21.7%)" stroke-width="1.5"></path><path d="M699 250.96L942.23 258.57" stroke="hsl(300, 100%, 21.7%)" stroke-width="1.5"></path><path d="M699 250.96L654.93 492.32" stroke="hsl(300, 100%, 21.7%)" stroke-width="1.5"></path><path d="M699 250.96L812.32 519.16" stroke="hsl(300, 100%, 21.7%)" stroke-width="1.5"></path><path d="M1120.99 210.61L1120.99 210.61" stroke="hsl(300, 100%, 21.7%)" stroke-width="1.5"></path><path d="M1120.99 210.61L1238.08 253.14" stroke="hsl(300, 100%, 21.7%)" stroke-width="1.5"></path><path d="M1120.99 210.61L1126.33 362.32" stroke="hsl(300, 100%, 21.7%)" stroke-width="1.5"></path><path d="M1120.99 210.61L997.1 339.1" stroke="hsl(300, 100%, 21.7%)" stroke-width="1.5"></path><path d="M1248.9 73.97L1248.9 73.97" stroke="hsl(300, 100%, 21.7%)" stroke-width="1.5"></path><path d="M1248.9 73.97L1311.15 -84.38" stroke="hsl(300, 100%, 21.7%)" stroke-width="1.5"></path><path d="M1248.9 73.97L1157.92 -76.66" stroke="hsl(300, 100%, 21.7%)" stroke-width="1.5"></path><path d="M1248.9 73.97L1238.08 253.14" stroke="hsl(300, 100%, 21.7%)" stroke-width="1.5"></path><path d="M1238.08 253.14L1238.08 253.14" stroke="hsl(300, 100%, 21.7%)" stroke-width="1.5"></path><path d="M1238.08 253.14L1251.7 383.16" stroke="hsl(300, 100%, 21.7%)" stroke-width="1.5"></path><path d="M1238.08 253.14L1126.33 362.32" stroke="hsl(300, 100%, 21.7%)" stroke-width="1.5"></path><path d="M1594.78 79.04L1594.78 79.04" stroke="hsl(300, 100%, 21.7%)" stroke-width="1.5"></path><path d="M1594.78 79.04L1456.39 83.82" stroke="hsl(300, 100%, 21.7%)" stroke-width="1.5"></path><path d="M1594.78 79.04L1608.29 253.94" stroke="hsl(300, 100%, 21.7%)" stroke-width="1.5"></path><path d="M-97.53 408.42L-97.53 408.42" stroke="hsl(300, 100%, 21.7%)" stroke-width="1.5"></path><path d="M-97.53 408.42L40.66 390.61" stroke="hsl(300, 100%, 21.7%)" stroke-width="1.5"></path><path d="M-97.53 408.42L-53.32 547.06" stroke="hsl(300, 100%, 21.7%)" stroke-width="1.5"></path><path d="M-53.32 547.06L-53.32 547.06" stroke="hsl(300, 100%, 21.7%)" stroke-width="1.5"></path><path d="M-53.32 547.06L48.65 561.69" stroke="hsl(300, 100%, 21.7%)" stroke-width="1.5"></path><path d="M-53.32 547.06L40.66 390.61" stroke="hsl(300, 100%, 21.7%)" stroke-width="1.5"></path><path d="M40.66 390.61L40.66 390.61" stroke="hsl(300, 100%, 21.7%)" stroke-width="1.5"></path><path d="M40.66 390.61L48.65 561.69" stroke="hsl(300, 100%, 21.7%)" stroke-width="1.5"></path><path d="M40.66 390.61L238.46 355.51" stroke="hsl(300, 100%, 21.7%)" stroke-width="1.5"></path><path d="M48.65 561.69L48.65 561.69" stroke="hsl(300, 100%, 21.7%)" stroke-width="1.5"></path><path d="M48.65 561.69L232.24 500.48" stroke="hsl(300, 100%, 21.7%)" stroke-width="1.5"></path><path d="M48.65 561.69L-97.53 408.42" stroke="hsl(300, 100%, 21.7%)" stroke-width="1.5"></path><path d="M48.65 561.69L238.46 355.51" stroke="hsl(300, 100%, 21.7%)" stroke-width="1.5"></path><path d="M48.65 561.69L349.88 536.63" stroke="hsl(300, 100%, 21.7%)" stroke-width="1.5"></path><path d="M238.46 355.51L238.46 355.51" stroke="hsl(300, 100%, 21.7%)" stroke-width="1.5"></path><path d="M238.46 355.51L232.24 500.48" stroke="hsl(300, 100%, 21.7%)" stroke-width="1.5"></path><path d="M238.46 355.51L384.81 346.35" stroke="hsl(300, 100%, 21.7%)" stroke-width="1.5"></path><path d="M232.24 500.48L232.24 500.48" stroke="hsl(300, 100%, 21.7%)" stroke-width="1.5"></path><path d="M232.24 500.48L349.88 536.63" stroke="hsl(300, 100%, 21.7%)" stroke-width="1.5"></path><path d="M232.24 500.48L384.81 346.35" stroke="hsl(300, 100%, 21.7%)" stroke-width="1.5"></path><path d="M232.24 500.48L40.66 390.61" stroke="hsl(300, 100%, 21.7%)" stroke-width="1.5"></path><path d="M232.24 500.48L495.57 492.44" stroke="hsl(300, 100%, 21.7%)" stroke-width="1.5"></path><path d="M384.81 346.35L384.81 346.35" stroke="hsl(300, 100%, 21.7%)" stroke-width="1.5"></path><path d="M384.81 346.35L502.86 371.93" stroke="hsl(300, 100%, 21.7%)" stroke-width="1.5"></path><path d="M384.81 346.35L495.57 492.44" stroke="hsl(300, 100%, 21.7%)" stroke-width="1.5"></path><path d="M384.81 346.35L349.88 536.63" stroke="hsl(300, 100%, 21.7%)" stroke-width="1.5"></path><path d="M349.88 536.63L349.88 536.63" stroke="hsl(300, 100%, 21.7%)" stroke-width="1.5"></path><path d="M349.88 536.63L238.46 355.51" stroke="hsl(300, 100%, 21.7%)" stroke-width="1.5"></path><path d="M502.86 371.93L502.86 371.93" stroke="hsl(300, 100%, 21.7%)" stroke-width="1.5"></path><path d="M502.86 371.93L695.66 373.35" stroke="hsl(300, 100%, 21.7%)" stroke-width="1.5"></path><path d="M695.66 373.35L695.66 373.35" stroke="hsl(300, 100%, 21.7%)" stroke-width="1.5"></path><path d="M695.66 373.35L654.93 492.32" stroke="hsl(300, 100%, 21.7%)" stroke-width="1.5"></path><path d="M695.66 373.35L851.92 368.73" stroke="hsl(300, 100%, 21.7%)" stroke-width="1.5"></path><path d="M695.66 373.35L812.32 519.16" stroke="hsl(300, 100%, 21.7%)" stroke-width="1.5"></path><path d="M654.93 492.32L654.93 492.32" stroke="hsl(300, 100%, 21.7%)" stroke-width="1.5"></path><path d="M654.93 492.32L812.32 519.16" stroke="hsl(300, 100%, 21.7%)" stroke-width="1.5"></path><path d="M851.92 368.73L851.92 368.73" stroke="hsl(300, 100%, 21.7%)" stroke-width="1.5"></path><path d="M851.92 368.73L942.23 258.57" stroke="hsl(300, 100%, 21.7%)" stroke-width="1.5"></path><path d="M851.92 368.73L997.1 339.1" stroke="hsl(300, 100%, 21.7%)" stroke-width="1.5"></path><path d="M851.92 368.73L812.32 519.16" stroke="hsl(300, 100%, 21.7%)" stroke-width="1.5"></path><path d="M812.32 519.16L812.32 519.16" stroke="hsl(300, 100%, 21.7%)" stroke-width="1.5"></path><path d="M812.32 519.16L1002.72 516.85" stroke="hsl(300, 100%, 21.7%)" stroke-width="1.5"></path><path d="M942.23 258.57L942.23 258.57" stroke="hsl(300, 100%, 21.7%)" stroke-width="1.5"></path><path d="M942.23 258.57L997.1 339.1" stroke="hsl(300, 100%, 21.7%)" stroke-width="1.5"></path><path d="M942.23 258.57L1120.99 210.61" stroke="hsl(300, 100%, 21.7%)" stroke-width="1.5"></path><path d="M942.23 258.57L1126.33 362.32" stroke="hsl(300, 100%, 21.7%)" stroke-width="1.5"></path><path d="M942.23 258.57L1002.72 516.85" stroke="hsl(300, 100%, 21.7%)" stroke-width="1.5"></path><path d="M997.1 339.1L997.1 339.1" stroke="hsl(300, 100%, 21.7%)" stroke-width="1.5"></path><path d="M997.1 339.1L1126.33 362.32" stroke="hsl(300, 100%, 21.7%)" stroke-width="1.5"></path><path d="M997.1 339.1L1002.72 516.85" stroke="hsl(300, 100%, 21.7%)" stroke-width="1.5"></path><path d="M997.1 339.1L1139.31 540.12" stroke="hsl(300, 100%, 21.7%)" stroke-width="1.5"></path><path d="M1002.72 516.85L1002.72 516.85" stroke="hsl(300, 100%, 21.7%)" stroke-width="1.5"></path><path d="M1002.72 516.85L1139.31 540.12" stroke="hsl(300, 100%, 21.7%)" stroke-width="1.5"></path><path d="M1157.92 -76.66L1157.92 -76.66" stroke="hsl(300, 100%, 21.7%)" stroke-width="1.5"></path><path d="M1157.92 -76.66L1311.15 -84.38" stroke="hsl(300, 100%, 21.7%)" stroke-width="1.5"></path><path d="M1126.33 362.32L1126.33 362.32" stroke="hsl(300, 100%, 21.7%)" stroke-width="1.5"></path><path d="M1126.33 362.32L1251.7 383.16" stroke="hsl(300, 100%, 21.7%)" stroke-width="1.5"></path><path d="M1139.31 540.12L1139.31 540.12" stroke="hsl(300, 100%, 21.7%)" stroke-width="1.5"></path><path d="M1139.31 540.12L1126.33 362.32" stroke="hsl(300, 100%, 21.7%)" stroke-width="1.5"></path><path d="M1139.31 540.12L1251.7 383.16" stroke="hsl(300, 100%, 21.7%)" stroke-width="1.5"></path><path d="M1139.31 540.12L1420.32 545.22" stroke="hsl(300, 100%, 21.7%)" stroke-width="1.5"></path><path d="M1139.31 540.12L1238.08 253.14" stroke="hsl(300, 100%, 21.7%)" stroke-width="1.5"></path><path d="M1311.15 -84.38L1311.15 -84.38" stroke="hsl(300, 100%, 21.7%)" stroke-width="1.5"></path><path d="M1311.15 -84.38L1443.97 -54.9" stroke="hsl(300, 100%, 21.7%)" stroke-width="1.5"></path><path d="M1311.15 -84.38L1456.39 83.82" stroke="hsl(300, 100%, 21.7%)" stroke-width="1.5"></path><path d="M1311.15 -84.38L1573.83 -108.11" stroke="hsl(300, 100%, 21.7%)" stroke-width="1.5"></path><path d="M1251.7 383.16L1251.7 383.16" stroke="hsl(300, 100%, 21.7%)" stroke-width="1.5"></path><path d="M1443.97 -54.9L1443.97 -54.9" stroke="hsl(300, 100%, 21.7%)" stroke-width="1.5"></path><path d="M1443.97 -54.9L1456.39 83.82" stroke="hsl(300, 100%, 21.7%)" stroke-width="1.5"></path><path d="M1443.97 -54.9L1573.83 -108.11" stroke="hsl(300, 100%, 21.7%)" stroke-width="1.5"></path><path d="M1443.97 -54.9L1594.78 79.04" stroke="hsl(300, 100%, 21.7%)" stroke-width="1.5"></path><path d="M1456.39 83.82L1456.39 83.82" stroke="hsl(300, 100%, 21.7%)" stroke-width="1.5"></path><path d="M1456.39 83.82L1422.35 245.89" stroke="hsl(300, 100%, 21.7%)" stroke-width="1.5"></path><path d="M1422.35 245.89L1422.35 245.89" stroke="hsl(300, 100%, 21.7%)" stroke-width="1.5"></path><path d="M1422.35 245.89L1436.87 365.57" stroke="hsl(300, 100%, 21.7%)" stroke-width="1.5"></path><path d="M1422.35 245.89L1238.08 253.14" stroke="hsl(300, 100%, 21.7%)" stroke-width="1.5"></path><path d="M1422.35 245.89L1608.29 253.94" stroke="hsl(300, 100%, 21.7%)" stroke-width="1.5"></path><path d="M1422.35 245.89L1600.32 347.47" stroke="hsl(300, 100%, 21.7%)" stroke-width="1.5"></path><path d="M1422.35 245.89L1251.7 383.16" stroke="hsl(300, 100%, 21.7%)" stroke-width="1.5"></path><path d="M1436.87 365.57L1436.87 365.57" stroke="hsl(300, 100%, 21.7%)" stroke-width="1.5"></path><path d="M1436.87 365.57L1600.32 347.47" stroke="hsl(300, 100%, 21.7%)" stroke-width="1.5"></path><path d="M1436.87 365.57L1420.32 545.22" stroke="hsl(300, 100%, 21.7%)" stroke-width="1.5"></path><path d="M1436.87 365.57L1251.7 383.16" stroke="hsl(300, 100%, 21.7%)" stroke-width="1.5"></path><path d="M1420.32 545.22L1420.32 545.22" stroke="hsl(300, 100%, 21.7%)" stroke-width="1.5"></path><path d="M1420.32 545.22L1596.91 491.81" stroke="hsl(300, 100%, 21.7%)" stroke-width="1.5"></path><path d="M1420.32 545.22L1251.7 383.16" stroke="hsl(300, 100%, 21.7%)" stroke-width="1.5"></path><path d="M1573.83 -108.11L1573.83 -108.11" stroke="hsl(300, 100%, 21.7%)" stroke-width="1.5"></path><path d="M1573.83 -108.11L1594.78 79.04" stroke="hsl(300, 100%, 21.7%)" stroke-width="1.5"></path><path d="M1573.83 -108.11L1456.39 83.82" stroke="hsl(300, 100%, 21.7%)" stroke-width="1.5"></path><path d="M1573.83 -108.11L1608.29 253.94" stroke="hsl(300, 100%, 21.7%)" stroke-width="1.5"></path><path d="M1608.29 253.94L1608.29 253.94" stroke="hsl(300, 100%, 21.7%)" stroke-width="1.5"></path><path d="M1608.29 253.94L1600.32 347.47" stroke="hsl(300, 100%, 21.7%)" stroke-width="1.5"></path><path d="M1608.29 253.94L1436.87 365.57" stroke="hsl(300, 100%, 21.7%)" stroke-width="1.5"></path><path d="M1600.32 347.47L1600.32 347.47" stroke="hsl(300, 100%, 21.7%)" stroke-width="1.5"></path><path d="M1600.32 347.47L1596.91 491.81" stroke="hsl(300, 100%, 21.7%)" stroke-width="1.5"></path><path d="M1596.91 491.81L1596.91 491.81" stroke="hsl(300, 100%, 21.7%)" stroke-width="1.5"></path><circle r="25" cx="495.57" cy="492.44" fill="url(#SvgjsRadialGradient2066)"></circle><circle r="25" cx="699" cy="250.96" fill="url(#SvgjsRadialGradient2066)"></circle><circle r="25" cx="1120.99" cy="210.61" fill="url(#SvgjsRadialGradient2066)"></circle><circle r="25" cx="1248.9" cy="73.97" fill="url(#SvgjsRadialGradient2066)"></circle><circle r="25" cx="1238.08" cy="253.14" fill="url(#SvgjsRadialGradient2066)"></circle><circle r="25" cx="1594.78" cy="79.04" fill="url(#SvgjsRadialGradient2066)"></circle><circle r="5" cx="-97.53" cy="408.42" fill="#aa80aa"></circle><circle r="5" cx="-53.32" cy="547.06" fill="#aa80aa"></circle><circle r="5" cx="40.66" cy="390.61" fill="#aa80aa"></circle><circle r="5" cx="48.65" cy="561.69" fill="#aa80aa"></circle><circle r="5" cx="238.46" cy="355.51" fill="#aa80aa"></circle><circle r="5" cx="232.24" cy="500.48" fill="#aa80aa"></circle><circle r="5" cx="384.81" cy="346.35" fill="#aa80aa"></circle><circle r="5" cx="349.88" cy="536.63" fill="#aa80aa"></circle><circle r="5" cx="502.86" cy="371.93" fill="#aa80aa"></circle><circle r="5" cx="695.66" cy="373.35" fill="#aa80aa"></circle><circle r="5" cx="654.93" cy="492.32" fill="#aa80aa"></circle><circle r="5" cx="851.92" cy="368.73" fill="#aa80aa"></circle><circle r="5" cx="812.32" cy="519.16" fill="#aa80aa"></circle><circle r="5" cx="942.23" cy="258.57" fill="#aa80aa"></circle><circle r="5" cx="997.1" cy="339.1" fill="#aa80aa"></circle><circle r="5" cx="1002.72" cy="516.85" fill="#aa80aa"></circle><circle r="5" cx="1157.92" cy="-76.66" fill="#aa80aa"></circle><circle r="5" cx="1126.33" cy="362.32" fill="#aa80aa"></circle><circle r="5" cx="1139.31" cy="540.12" fill="#aa80aa"></circle><circle r="5" cx="1311.15" cy="-84.38" fill="#aa80aa"></circle><circle r="5" cx="1251.7" cy="383.16" fill="#aa80aa"></circle><circle r="5" cx="1443.97" cy="-54.9" fill="#aa80aa"></circle><circle r="5" cx="1456.39" cy="83.82" fill="#aa80aa"></circle><circle r="5" cx="1422.35" cy="245.89" fill="#aa80aa"></circle><circle r="5" cx="1436.87" cy="365.57" fill="#aa80aa"></circle><circle r="5" cx="1420.32" cy="545.22" fill="#aa80aa"></circle><circle r="5" cx="1573.83" cy="-108.11" fill="#aa80aa"></circle><circle r="5" cx="1608.29" cy="253.94" fill="#aa80aa"></circle><circle r="5" cx="1600.32" cy="347.47" fill="#aa80aa"></circle><circle r="5" cx="1596.91" cy="491.81" fill="#aa80aa"></circle></g><defs><mask id="SvgjsMask2064"><rect width="1400" height="376" fill="#ffffff"></rect></mask><linearGradient x1="50%" y1="0%" x2="50%" y2="100%" gradientUnits="userSpaceOnUse" id="SvgjsLinearGradient2065"><stop stop-color="rgba(51, 0, 51, 1)" offset="0.04"></stop><stop stop-color="rgba(255, 255, 255, 1)" offset="1"></stop></linearGradient><radialGradient id="SvgjsRadialGradient2066"><stop stop-color="#ffffff" offset="0.1"></stop><stop stop-color="rgba(85, 0, 85, 1)" offset="0.2"></stop><stop stop-color="rgba(85, 0, 85, 0)" offset="1"></stop></radialGradient></defs></svg>