<svg xmlns="http://www.w3.org/2000/svg" version="1.1" xmlns:xlink="http://www.w3.org/1999/xlink" xmlns:svgjs="http://svgjs.com/svgjs" width="1400" height="376" preserveAspectRatio="none" viewBox="0 0 1400 376"><g mask="url(&quot;#SvgjsMask1024&quot;)" fill="none"><rect width="1400" height="376" x="0" y="0" fill="rgba(53, 4, 53, 1)"></rect><path d="M-108.76 543.11L-108.76 543.11" stroke="rgba(68, 0, 68, 1)" stroke-width="1.5"></path><path d="M-108.76 543.11L46.15 513.57" stroke="rgba(68, 0, 68, 1)" stroke-width="1.5"></path><path d="M-108.76 543.11L47.41 362.69" stroke="rgba(68, 0, 68, 1)" stroke-width="1.5"></path><path d="M-108.76 543.11L207.72 489.09" stroke="rgba(68, 0, 68, 1)" stroke-width="1.5"></path><path d="M84.63 253.31L84.63 253.31" stroke="rgba(68, 0, 68, 1)" stroke-width="1.5"></path><path d="M84.63 253.31L47.41 362.69" stroke="rgba(68, 0, 68, 1)" stroke-width="1.5"></path><path d="M84.63 253.31L194.93 370.02" stroke="rgba(68, 0, 68, 1)" stroke-width="1.5"></path><path d="M84.63 253.31L46.15 513.57" stroke="rgba(68, 0, 68, 1)" stroke-width="1.5"></path><path d="M84.63 253.31L207.72 489.09" stroke="rgba(68, 0, 68, 1)" stroke-width="1.5"></path><path d="M84.63 253.31L-108.76 543.11" stroke="rgba(68, 0, 68, 1)" stroke-width="1.5"></path><path d="M84.63 253.31L358.6 520.37" stroke="rgba(68, 0, 68, 1)" stroke-width="1.5"></path><path d="M47.41 362.69L47.41 362.69" stroke="rgba(68, 0, 68, 1)" stroke-width="1.5"></path><path d="M47.41 362.69L194.93 370.02" stroke="rgba(68, 0, 68, 1)" stroke-width="1.5"></path><path d="M47.41 362.69L46.15 513.57" stroke="rgba(68, 0, 68, 1)" stroke-width="1.5"></path><path d="M47.41 362.69L207.72 489.09" stroke="rgba(68, 0, 68, 1)" stroke-width="1.5"></path><path d="M47.41 362.69L358.6 520.37" stroke="rgba(68, 0, 68, 1)" stroke-width="1.5"></path><path d="M46.15 513.57L46.15 513.57" stroke="rgba(68, 0, 68, 1)" stroke-width="1.5"></path><path d="M46.15 513.57L207.72 489.09" stroke="rgba(68, 0, 68, 1)" stroke-width="1.5"></path><path d="M46.15 513.57L194.93 370.02" stroke="rgba(68, 0, 68, 1)" stroke-width="1.5"></path><path d="M194.93 370.02L194.93 370.02" stroke="rgba(68, 0, 68, 1)" stroke-width="1.5"></path><path d="M194.93 370.02L207.72 489.09" stroke="rgba(68, 0, 68, 1)" stroke-width="1.5"></path><path d="M207.72 489.09L207.72 489.09" stroke="rgba(68, 0, 68, 1)" stroke-width="1.5"></path><path d="M207.72 489.09L358.6 520.37" stroke="rgba(68, 0, 68, 1)" stroke-width="1.5"></path><path d="M358.6 520.37L358.6 520.37" stroke="rgba(68, 0, 68, 1)" stroke-width="1.5"></path><path d="M358.6 520.37L554.83 495.07" stroke="rgba(68, 0, 68, 1)" stroke-width="1.5"></path><path d="M358.6 520.37L194.93 370.02" stroke="rgba(68, 0, 68, 1)" stroke-width="1.5"></path><path d="M358.6 520.37L555.07 359.1" stroke="rgba(68, 0, 68, 1)" stroke-width="1.5"></path><path d="M358.6 520.37L46.15 513.57" stroke="rgba(68, 0, 68, 1)" stroke-width="1.5"></path><path d="M537.09 234.94L537.09 234.94" stroke="rgba(68, 0, 68, 1)" stroke-width="1.5"></path><path d="M537.09 234.94L643.38 243.59" stroke="rgba(68, 0, 68, 1)" stroke-width="1.5"></path><path d="M537.09 234.94L555.07 359.1" stroke="rgba(68, 0, 68, 1)" stroke-width="1.5"></path><path d="M537.09 234.94L554.83 495.07" stroke="rgba(68, 0, 68, 1)" stroke-width="1.5"></path><path d="M537.09 234.94L801.28 354.62" stroke="rgba(68, 0, 68, 1)" stroke-width="1.5"></path><path d="M537.09 234.94L855.57 246.39" stroke="rgba(68, 0, 68, 1)" stroke-width="1.5"></path><path d="M537.09 234.94L358.6 520.37" stroke="rgba(68, 0, 68, 1)" stroke-width="1.5"></path><path d="M555.07 359.1L555.07 359.1" stroke="rgba(68, 0, 68, 1)" stroke-width="1.5"></path><path d="M555.07 359.1L554.83 495.07" stroke="rgba(68, 0, 68, 1)" stroke-width="1.5"></path><path d="M555.07 359.1L643.38 243.59" stroke="rgba(68, 0, 68, 1)" stroke-width="1.5"></path><path d="M554.83 495.07L554.83 495.07" stroke="rgba(68, 0, 68, 1)" stroke-width="1.5"></path><path d="M554.83 495.07L681.38 561.67" stroke="rgba(68, 0, 68, 1)" stroke-width="1.5"></path><path d="M643.38 243.59L643.38 243.59" stroke="rgba(68, 0, 68, 1)" stroke-width="1.5"></path><path d="M643.38 243.59L801.28 354.62" stroke="rgba(68, 0, 68, 1)" stroke-width="1.5"></path><path d="M643.38 243.59L855.57 246.39" stroke="rgba(68, 0, 68, 1)" stroke-width="1.5"></path><path d="M643.38 243.59L554.83 495.07" stroke="rgba(68, 0, 68, 1)" stroke-width="1.5"></path><path d="M643.38 243.59L960.12 213.14" stroke="rgba(68, 0, 68, 1)" stroke-width="1.5"></path><path d="M681.38 561.67L681.38 561.67" stroke="rgba(68, 0, 68, 1)" stroke-width="1.5"></path><path d="M681.38 561.67L850.03 506.69" stroke="rgba(68, 0, 68, 1)" stroke-width="1.5"></path><path d="M681.38 561.67L555.07 359.1" stroke="rgba(68, 0, 68, 1)" stroke-width="1.5"></path><path d="M681.38 561.67L801.28 354.62" stroke="rgba(68, 0, 68, 1)" stroke-width="1.5"></path><path d="M855.57 246.39L855.57 246.39" stroke="rgba(68, 0, 68, 1)" stroke-width="1.5"></path><path d="M855.57 246.39L960.12 213.14" stroke="rgba(68, 0, 68, 1)" stroke-width="1.5"></path><path d="M855.57 246.39L801.28 354.62" stroke="rgba(68, 0, 68, 1)" stroke-width="1.5"></path><path d="M801.28 354.62L801.28 354.62" stroke="rgba(68, 0, 68, 1)" stroke-width="1.5"></path><path d="M801.28 354.62L850.03 506.69" stroke="rgba(68, 0, 68, 1)" stroke-width="1.5"></path><path d="M801.28 354.62L942.22 510.45" stroke="rgba(68, 0, 68, 1)" stroke-width="1.5"></path><path d="M801.28 354.62L960.12 213.14" stroke="rgba(68, 0, 68, 1)" stroke-width="1.5"></path><path d="M850.03 506.69L850.03 506.69" stroke="rgba(68, 0, 68, 1)" stroke-width="1.5"></path><path d="M850.03 506.69L942.22 510.45" stroke="rgba(68, 0, 68, 1)" stroke-width="1.5"></path><path d="M850.03 506.69L855.57 246.39" stroke="rgba(68, 0, 68, 1)" stroke-width="1.5"></path><path d="M975.11 -65.44L975.11 -65.44" stroke="rgba(68, 0, 68, 1)" stroke-width="1.5"></path><path d="M975.11 -65.44L991.21 71.71" stroke="rgba(68, 0, 68, 1)" stroke-width="1.5"></path><path d="M975.11 -65.44L1158.42 -76.4" stroke="rgba(68, 0, 68, 1)" stroke-width="1.5"></path><path d="M991.21 71.71L991.21 71.71" stroke="rgba(68, 0, 68, 1)" stroke-width="1.5"></path><path d="M991.21 71.71L1103.01 66.35" stroke="rgba(68, 0, 68, 1)" stroke-width="1.5"></path><path d="M991.21 71.71L960.12 213.14" stroke="rgba(68, 0, 68, 1)" stroke-width="1.5"></path><path d="M960.12 213.14L960.12 213.14" stroke="rgba(68, 0, 68, 1)" stroke-width="1.5"></path><path d="M960.12 213.14L1138.54 215.65" stroke="rgba(68, 0, 68, 1)" stroke-width="1.5"></path><path d="M960.12 213.14L1103.01 66.35" stroke="rgba(68, 0, 68, 1)" stroke-width="1.5"></path><path d="M942.22 510.45L942.22 510.45" stroke="rgba(68, 0, 68, 1)" stroke-width="1.5"></path><path d="M942.22 510.45L1125.39 528.98" stroke="rgba(68, 0, 68, 1)" stroke-width="1.5"></path><path d="M942.22 510.45L681.38 561.67" stroke="rgba(68, 0, 68, 1)" stroke-width="1.5"></path><path d="M1158.42 -76.4L1158.42 -76.4" stroke="rgba(68, 0, 68, 1)" stroke-width="1.5"></path><path d="M1158.42 -76.4L1293.69 -64.21" stroke="rgba(68, 0, 68, 1)" stroke-width="1.5"></path><path d="M1158.42 -76.4L1103.01 66.35" stroke="rgba(68, 0, 68, 1)" stroke-width="1.5"></path><path d="M1158.42 -76.4L1256.45 68.56" stroke="rgba(68, 0, 68, 1)" stroke-width="1.5"></path><path d="M1158.42 -76.4L991.21 71.71" stroke="rgba(68, 0, 68, 1)" stroke-width="1.5"></path><path d="M1158.42 -76.4L1423.39 -91.45" stroke="rgba(68, 0, 68, 1)" stroke-width="1.5"></path><path d="M1103.01 66.35L1103.01 66.35" stroke="rgba(68, 0, 68, 1)" stroke-width="1.5"></path><path d="M1138.54 215.65L1138.54 215.65" stroke="rgba(68, 0, 68, 1)" stroke-width="1.5"></path><path d="M1138.54 215.65L1103.01 66.35" stroke="rgba(68, 0, 68, 1)" stroke-width="1.5"></path><path d="M1138.54 215.65L1297.13 259.72" stroke="rgba(68, 0, 68, 1)" stroke-width="1.5"></path><path d="M1138.54 215.65L1239.43 361.06" stroke="rgba(68, 0, 68, 1)" stroke-width="1.5"></path><path d="M1125.39 528.98L1125.39 528.98" stroke="rgba(68, 0, 68, 1)" stroke-width="1.5"></path><path d="M1125.39 528.98L1305.1 537.94" stroke="rgba(68, 0, 68, 1)" stroke-width="1.5"></path><path d="M1125.39 528.98L1239.43 361.06" stroke="rgba(68, 0, 68, 1)" stroke-width="1.5"></path><path d="M1125.39 528.98L850.03 506.69" stroke="rgba(68, 0, 68, 1)" stroke-width="1.5"></path><path d="M1125.39 528.98L1404.6 404" stroke="rgba(68, 0, 68, 1)" stroke-width="1.5"></path><path d="M1125.39 528.98L1138.54 215.65" stroke="rgba(68, 0, 68, 1)" stroke-width="1.5"></path><path d="M1293.69 -64.21L1293.69 -64.21" stroke="rgba(68, 0, 68, 1)" stroke-width="1.5"></path><path d="M1293.69 -64.21L1423.39 -91.45" stroke="rgba(68, 0, 68, 1)" stroke-width="1.5"></path><path d="M1256.45 68.56L1256.45 68.56" stroke="rgba(68, 0, 68, 1)" stroke-width="1.5"></path><path d="M1256.45 68.56L1293.69 -64.21" stroke="rgba(68, 0, 68, 1)" stroke-width="1.5"></path><path d="M1256.45 68.56L1103.01 66.35" stroke="rgba(68, 0, 68, 1)" stroke-width="1.5"></path><path d="M1256.45 68.56L1412.52 44.97" stroke="rgba(68, 0, 68, 1)" stroke-width="1.5"></path><path d="M1256.45 68.56L1138.54 215.65" stroke="rgba(68, 0, 68, 1)" stroke-width="1.5"></path><path d="M1297.13 259.72L1297.13 259.72" stroke="rgba(68, 0, 68, 1)" stroke-width="1.5"></path><path d="M1297.13 259.72L1239.43 361.06" stroke="rgba(68, 0, 68, 1)" stroke-width="1.5"></path><path d="M1297.13 259.72L1443.67 234.1" stroke="rgba(68, 0, 68, 1)" stroke-width="1.5"></path><path d="M1297.13 259.72L1404.6 404" stroke="rgba(68, 0, 68, 1)" stroke-width="1.5"></path><path d="M1239.43 361.06L1239.43 361.06" stroke="rgba(68, 0, 68, 1)" stroke-width="1.5"></path><path d="M1239.43 361.06L1404.6 404" stroke="rgba(68, 0, 68, 1)" stroke-width="1.5"></path><path d="M1239.43 361.06L1305.1 537.94" stroke="rgba(68, 0, 68, 1)" stroke-width="1.5"></path><path d="M1305.1 537.94L1305.1 537.94" stroke="rgba(68, 0, 68, 1)" stroke-width="1.5"></path><path d="M1305.1 537.94L1439.49 549.43" stroke="rgba(68, 0, 68, 1)" stroke-width="1.5"></path><path d="M1305.1 537.94L1404.6 404" stroke="rgba(68, 0, 68, 1)" stroke-width="1.5"></path><path d="M1305.1 537.94L1567.45 491.51" stroke="rgba(68, 0, 68, 1)" stroke-width="1.5"></path><path d="M1423.39 -91.45L1423.39 -91.45" stroke="rgba(68, 0, 68, 1)" stroke-width="1.5"></path><path d="M1423.39 -91.45L1412.52 44.97" stroke="rgba(68, 0, 68, 1)" stroke-width="1.5"></path><path d="M1423.39 -91.45L1592.32 -73.16" stroke="rgba(68, 0, 68, 1)" stroke-width="1.5"></path><path d="M1423.39 -91.45L1256.45 68.56" stroke="rgba(68, 0, 68, 1)" stroke-width="1.5"></path><path d="M1412.52 44.97L1412.52 44.97" stroke="rgba(68, 0, 68, 1)" stroke-width="1.5"></path><path d="M1412.52 44.97L1293.69 -64.21" stroke="rgba(68, 0, 68, 1)" stroke-width="1.5"></path><path d="M1443.67 234.1L1443.67 234.1" stroke="rgba(68, 0, 68, 1)" stroke-width="1.5"></path><path d="M1443.67 234.1L1580.07 217.62" stroke="rgba(68, 0, 68, 1)" stroke-width="1.5"></path><path d="M1443.67 234.1L1556.97 346.19" stroke="rgba(68, 0, 68, 1)" stroke-width="1.5"></path><path d="M1443.67 234.1L1404.6 404" stroke="rgba(68, 0, 68, 1)" stroke-width="1.5"></path><path d="M1404.6 404L1404.6 404" stroke="rgba(68, 0, 68, 1)" stroke-width="1.5"></path><path d="M1404.6 404L1439.49 549.43" stroke="rgba(68, 0, 68, 1)" stroke-width="1.5"></path><path d="M1404.6 404L1556.97 346.19" stroke="rgba(68, 0, 68, 1)" stroke-width="1.5"></path><path d="M1439.49 549.43L1439.49 549.43" stroke="rgba(68, 0, 68, 1)" stroke-width="1.5"></path><path d="M1439.49 549.43L1567.45 491.51" stroke="rgba(68, 0, 68, 1)" stroke-width="1.5"></path><path d="M1439.49 549.43L1556.97 346.19" stroke="rgba(68, 0, 68, 1)" stroke-width="1.5"></path><path d="M1592.32 -73.16L1592.32 -73.16" stroke="rgba(68, 0, 68, 1)" stroke-width="1.5"></path><path d="M1592.32 -73.16L1412.52 44.97" stroke="rgba(68, 0, 68, 1)" stroke-width="1.5"></path><path d="M1592.32 -73.16L1580.07 217.62" stroke="rgba(68, 0, 68, 1)" stroke-width="1.5"></path><path d="M1592.32 -73.16L1293.69 -64.21" stroke="rgba(68, 0, 68, 1)" stroke-width="1.5"></path><path d="M1592.32 -73.16L1443.67 234.1" stroke="rgba(68, 0, 68, 1)" stroke-width="1.5"></path><path d="M1592.32 -73.16L1256.45 68.56" stroke="rgba(68, 0, 68, 1)" stroke-width="1.5"></path><path d="M1580.07 217.62L1580.07 217.62" stroke="rgba(68, 0, 68, 1)" stroke-width="1.5"></path><path d="M1580.07 217.62L1556.97 346.19" stroke="rgba(68, 0, 68, 1)" stroke-width="1.5"></path><path d="M1580.07 217.62L1412.52 44.97" stroke="rgba(68, 0, 68, 1)" stroke-width="1.5"></path><path d="M1580.07 217.62L1404.6 404" stroke="rgba(68, 0, 68, 1)" stroke-width="1.5"></path><path d="M1556.97 346.19L1556.97 346.19" stroke="rgba(68, 0, 68, 1)" stroke-width="1.5"></path><path d="M1556.97 346.19L1567.45 491.51" stroke="rgba(68, 0, 68, 1)" stroke-width="1.5"></path><path d="M1556.97 346.19L1297.13 259.72" stroke="rgba(68, 0, 68, 1)" stroke-width="1.5"></path><path d="M1567.45 491.51L1567.45 491.51" stroke="rgba(68, 0, 68, 1)" stroke-width="1.5"></path><path d="M1567.45 491.51L1404.6 404" stroke="rgba(68, 0, 68, 1)" stroke-width="1.5"></path><path d="M1567.45 491.51L1580.07 217.62" stroke="rgba(68, 0, 68, 1)" stroke-width="1.5"></path><circle r="5" cx="-108.76" cy="543.11" fill="rgba(68, 0, 68, 1)"></circle><circle r="5" cx="84.63" cy="253.31" fill="rgba(68, 0, 68, 1)"></circle><circle r="5" cx="47.41" cy="362.69" fill="rgba(68, 0, 68, 1)"></circle><circle r="5" cx="46.15" cy="513.57" fill="rgba(68, 0, 68, 1)"></circle><circle r="5" cx="194.93" cy="370.02" fill="rgba(68, 0, 68, 1)"></circle><circle r="5" cx="207.72" cy="489.09" fill="rgba(68, 0, 68, 1)"></circle><circle r="5" cx="358.6" cy="520.37" fill="rgba(68, 0, 68, 1)"></circle><circle r="5" cx="537.09" cy="234.94" fill="rgba(68, 0, 68, 1)"></circle><circle r="5" cx="555.07" cy="359.1" fill="rgba(68, 0, 68, 1)"></circle><circle r="5" cx="554.83" cy="495.07" fill="rgba(68, 0, 68, 1)"></circle><circle r="5" cx="643.38" cy="243.59" fill="rgba(68, 0, 68, 1)"></circle><circle r="5" cx="681.38" cy="561.67" fill="rgba(68, 0, 68, 1)"></circle><circle r="5" cx="855.57" cy="246.39" fill="rgba(68, 0, 68, 1)"></circle><circle r="5" cx="801.28" cy="354.62" fill="rgba(68, 0, 68, 1)"></circle><circle r="5" cx="850.03" cy="506.69" fill="rgba(68, 0, 68, 1)"></circle><circle r="5" cx="975.11" cy="-65.44" fill="rgba(68, 0, 68, 1)"></circle><circle r="5" cx="991.21" cy="71.71" fill="rgba(68, 0, 68, 1)"></circle><circle r="5" cx="960.12" cy="213.14" fill="rgba(68, 0, 68, 1)"></circle><circle r="5" cx="942.22" cy="510.45" fill="rgba(68, 0, 68, 1)"></circle><circle r="5" cx="1158.42" cy="-76.4" fill="rgba(68, 0, 68, 1)"></circle><circle r="5" cx="1103.01" cy="66.35" fill="rgba(68, 0, 68, 1)"></circle><circle r="5" cx="1138.54" cy="215.65" fill="rgba(68, 0, 68, 1)"></circle><circle r="5" cx="1125.39" cy="528.98" fill="rgba(68, 0, 68, 1)"></circle><circle r="5" cx="1293.69" cy="-64.21" fill="rgba(68, 0, 68, 1)"></circle><circle r="5" cx="1256.45" cy="68.56" fill="rgba(68, 0, 68, 1)"></circle><circle r="5" cx="1297.13" cy="259.72" fill="rgba(68, 0, 68, 1)"></circle><circle r="5" cx="1239.43" cy="361.06" fill="rgba(68, 0, 68, 1)"></circle><circle r="5" cx="1305.1" cy="537.94" fill="rgba(68, 0, 68, 1)"></circle><circle r="5" cx="1423.39" cy="-91.45" fill="rgba(68, 0, 68, 1)"></circle><circle r="5" cx="1412.52" cy="44.97" fill="rgba(68, 0, 68, 1)"></circle><circle r="5" cx="1443.67" cy="234.1" fill="rgba(68, 0, 68, 1)"></circle><circle r="5" cx="1404.6" cy="404" fill="rgba(68, 0, 68, 1)"></circle><circle r="5" cx="1439.49" cy="549.43" fill="rgba(68, 0, 68, 1)"></circle><circle r="5" cx="1592.32" cy="-73.16" fill="rgba(68, 0, 68, 1)"></circle><circle r="5" cx="1580.07" cy="217.62" fill="rgba(68, 0, 68, 1)"></circle><circle r="5" cx="1556.97" cy="346.19" fill="rgba(68, 0, 68, 1)"></circle><circle r="5" cx="1567.45" cy="491.51" fill="rgba(68, 0, 68, 1)"></circle><path d="M43.41 353.81L43.41 353.81" stroke="hsl(300, 100%, 21.7%)" stroke-width="1.5"></path><path d="M43.41 353.81L-82.41 368.74" stroke="hsl(300, 100%, 21.7%)" stroke-width="1.5"></path><path d="M43.41 353.81L228.53 363.97" stroke="hsl(300, 100%, 21.7%)" stroke-width="1.5"></path><path d="M43.41 353.81L-44.43 526.89" stroke="hsl(300, 100%, 21.7%)" stroke-width="1.5"></path><path d="M228.53 363.97L228.53 363.97" stroke="hsl(300, 100%, 21.7%)" stroke-width="1.5"></path><path d="M228.53 363.97L261.63 503.31" stroke="hsl(300, 100%, 21.7%)" stroke-width="1.5"></path><path d="M228.53 363.97L381.74 384.39" stroke="hsl(300, 100%, 21.7%)" stroke-width="1.5"></path><path d="M228.53 363.97L514.57 341" stroke="hsl(300, 100%, 21.7%)" stroke-width="1.5"></path><path d="M228.53 363.97L-82.41 368.74" stroke="hsl(300, 100%, 21.7%)" stroke-width="1.5"></path><path d="M228.53 363.97L-44.43 526.89" stroke="hsl(300, 100%, 21.7%)" stroke-width="1.5"></path><path d="M537.81 514.07L537.81 514.07" stroke="hsl(300, 100%, 21.7%)" stroke-width="1.5"></path><path d="M537.81 514.07L640.02 524.62" stroke="hsl(300, 100%, 21.7%)" stroke-width="1.5"></path><path d="M537.81 514.07L514.57 341" stroke="hsl(300, 100%, 21.7%)" stroke-width="1.5"></path><path d="M679.05 379.95L679.05 379.95" stroke="hsl(300, 100%, 21.7%)" stroke-width="1.5"></path><path d="M679.05 379.95L822.55 363.98" stroke="hsl(300, 100%, 21.7%)" stroke-width="1.5"></path><path d="M679.05 379.95L640.02 524.62" stroke="hsl(300, 100%, 21.7%)" stroke-width="1.5"></path><path d="M679.05 379.95L514.57 341" stroke="hsl(300, 100%, 21.7%)" stroke-width="1.5"></path><path d="M679.05 379.95L806.98 233.98" stroke="hsl(300, 100%, 21.7%)" stroke-width="1.5"></path><path d="M679.05 379.95L537.81 514.07" stroke="hsl(300, 100%, 21.7%)" stroke-width="1.5"></path><path d="M640.02 524.62L640.02 524.62" stroke="hsl(300, 100%, 21.7%)" stroke-width="1.5"></path><path d="M950.52 226.8L950.52 226.8" stroke="hsl(300, 100%, 21.7%)" stroke-width="1.5"></path><path d="M950.52 226.8L806.98 233.98" stroke="hsl(300, 100%, 21.7%)" stroke-width="1.5"></path><path d="M950.52 226.8L1103.7 251.33" stroke="hsl(300, 100%, 21.7%)" stroke-width="1.5"></path><path d="M950.52 226.8L1001.56 382.91" stroke="hsl(300, 100%, 21.7%)" stroke-width="1.5"></path><path d="M950.52 226.8L822.55 363.98" stroke="hsl(300, 100%, 21.7%)" stroke-width="1.5"></path><path d="M950.52 226.8L1103.41 103.97" stroke="hsl(300, 100%, 21.7%)" stroke-width="1.5"></path><path d="M1103.7 251.33L1103.7 251.33" stroke="hsl(300, 100%, 21.7%)" stroke-width="1.5"></path><path d="M1103.7 251.33L1145.93 369.85" stroke="hsl(300, 100%, 21.7%)" stroke-width="1.5"></path><path d="M1103.7 251.33L1103.41 103.97" stroke="hsl(300, 100%, 21.7%)" stroke-width="1.5"></path><path d="M1103.7 251.33L1253.26 234.21" stroke="hsl(300, 100%, 21.7%)" stroke-width="1.5"></path><path d="M1291.21 51.27L1291.21 51.27" stroke="hsl(300, 100%, 21.7%)" stroke-width="1.5"></path><path d="M1291.21 51.27L1266.2 -57.13" stroke="hsl(300, 100%, 21.7%)" stroke-width="1.5"></path><path d="M1291.21 51.27L1398.31 -45.11" stroke="hsl(300, 100%, 21.7%)" stroke-width="1.5"></path><path d="M1389.97 205.34L1389.97 205.34" stroke="hsl(300, 100%, 21.7%)" stroke-width="1.5"></path><path d="M1389.97 205.34L1253.26 234.21" stroke="hsl(300, 100%, 21.7%)" stroke-width="1.5"></path><path d="M1571.95 250.99L1571.95 250.99" stroke="hsl(300, 100%, 21.7%)" stroke-width="1.5"></path><path d="M1571.95 250.99L1603.72 377.44" stroke="hsl(300, 100%, 21.7%)" stroke-width="1.5"></path><path d="M1571.95 250.99L1453.31 383.83" stroke="hsl(300, 100%, 21.7%)" stroke-width="1.5"></path><path d="M1571.95 250.99L1389.97 205.34" stroke="hsl(300, 100%, 21.7%)" stroke-width="1.5"></path><path d="M-82.41 368.74L-82.41 368.74" stroke="hsl(300, 100%, 21.7%)" stroke-width="1.5"></path><path d="M-82.41 368.74L-44.43 526.89" stroke="hsl(300, 100%, 21.7%)" stroke-width="1.5"></path><path d="M-82.41 368.74L261.63 503.31" stroke="hsl(300, 100%, 21.7%)" stroke-width="1.5"></path><path d="M-82.41 368.74L381.74 384.39" stroke="hsl(300, 100%, 21.7%)" stroke-width="1.5"></path><path d="M-82.41 368.74L514.57 341" stroke="hsl(300, 100%, 21.7%)" stroke-width="1.5"></path><path d="M-44.43 526.89L-44.43 526.89" stroke="hsl(300, 100%, 21.7%)" stroke-width="1.5"></path><path d="M-44.43 526.89L261.63 503.31" stroke="hsl(300, 100%, 21.7%)" stroke-width="1.5"></path><path d="M261.63 503.31L261.63 503.31" stroke="hsl(300, 100%, 21.7%)" stroke-width="1.5"></path><path d="M261.63 503.31L381.74 384.39" stroke="hsl(300, 100%, 21.7%)" stroke-width="1.5"></path><path d="M261.63 503.31L43.41 353.81" stroke="hsl(300, 100%, 21.7%)" stroke-width="1.5"></path><path d="M261.63 503.31L537.81 514.07" stroke="hsl(300, 100%, 21.7%)" stroke-width="1.5"></path><path d="M261.63 503.31L514.57 341" stroke="hsl(300, 100%, 21.7%)" stroke-width="1.5"></path><path d="M381.74 384.39L381.74 384.39" stroke="hsl(300, 100%, 21.7%)" stroke-width="1.5"></path><path d="M381.74 384.39L514.57 341" stroke="hsl(300, 100%, 21.7%)" stroke-width="1.5"></path><path d="M514.57 341L514.57 341" stroke="hsl(300, 100%, 21.7%)" stroke-width="1.5"></path><path d="M806.98 233.98L806.98 233.98" stroke="hsl(300, 100%, 21.7%)" stroke-width="1.5"></path><path d="M806.98 233.98L822.55 363.98" stroke="hsl(300, 100%, 21.7%)" stroke-width="1.5"></path><path d="M822.55 363.98L822.55 363.98" stroke="hsl(300, 100%, 21.7%)" stroke-width="1.5"></path><path d="M822.55 363.98L1001.56 382.91" stroke="hsl(300, 100%, 21.7%)" stroke-width="1.5"></path><path d="M822.55 363.98L859.69 542.12" stroke="hsl(300, 100%, 21.7%)" stroke-width="1.5"></path><path d="M859.69 542.12L859.69 542.12" stroke="hsl(300, 100%, 21.7%)" stroke-width="1.5"></path><path d="M859.69 542.12L945.16 519.24" stroke="hsl(300, 100%, 21.7%)" stroke-width="1.5"></path><path d="M859.69 542.12L1001.56 382.91" stroke="hsl(300, 100%, 21.7%)" stroke-width="1.5"></path><path d="M1001.56 382.91L1001.56 382.91" stroke="hsl(300, 100%, 21.7%)" stroke-width="1.5"></path><path d="M1001.56 382.91L1145.93 369.85" stroke="hsl(300, 100%, 21.7%)" stroke-width="1.5"></path><path d="M1001.56 382.91L945.16 519.24" stroke="hsl(300, 100%, 21.7%)" stroke-width="1.5"></path><path d="M1001.56 382.91L1103.7 251.33" stroke="hsl(300, 100%, 21.7%)" stroke-width="1.5"></path><path d="M945.16 519.24L945.16 519.24" stroke="hsl(300, 100%, 21.7%)" stroke-width="1.5"></path><path d="M945.16 519.24L1135.12 503.39" stroke="hsl(300, 100%, 21.7%)" stroke-width="1.5"></path><path d="M945.16 519.24L822.55 363.98" stroke="hsl(300, 100%, 21.7%)" stroke-width="1.5"></path><path d="M945.16 519.24L1145.93 369.85" stroke="hsl(300, 100%, 21.7%)" stroke-width="1.5"></path><path d="M1103.41 103.97L1103.41 103.97" stroke="hsl(300, 100%, 21.7%)" stroke-width="1.5"></path><path d="M1103.41 103.97L1291.21 51.27" stroke="hsl(300, 100%, 21.7%)" stroke-width="1.5"></path><path d="M1103.41 103.97L1253.26 234.21" stroke="hsl(300, 100%, 21.7%)" stroke-width="1.5"></path><path d="M1103.41 103.97L1266.2 -57.13" stroke="hsl(300, 100%, 21.7%)" stroke-width="1.5"></path><path d="M1145.93 369.85L1145.93 369.85" stroke="hsl(300, 100%, 21.7%)" stroke-width="1.5"></path><path d="M1145.93 369.85L1135.12 503.39" stroke="hsl(300, 100%, 21.7%)" stroke-width="1.5"></path><path d="M1135.12 503.39L1135.12 503.39" stroke="hsl(300, 100%, 21.7%)" stroke-width="1.5"></path><path d="M1135.12 503.39L1273.27 538.27" stroke="hsl(300, 100%, 21.7%)" stroke-width="1.5"></path><path d="M1135.12 503.39L1001.56 382.91" stroke="hsl(300, 100%, 21.7%)" stroke-width="1.5"></path><path d="M1135.12 503.39L1280.23 340.36" stroke="hsl(300, 100%, 21.7%)" stroke-width="1.5"></path><path d="M1266.2 -57.13L1266.2 -57.13" stroke="hsl(300, 100%, 21.7%)" stroke-width="1.5"></path><path d="M1266.2 -57.13L1398.31 -45.11" stroke="hsl(300, 100%, 21.7%)" stroke-width="1.5"></path><path d="M1266.2 -57.13L1445.43 74.4" stroke="hsl(300, 100%, 21.7%)" stroke-width="1.5"></path><path d="M1253.26 234.21L1253.26 234.21" stroke="hsl(300, 100%, 21.7%)" stroke-width="1.5"></path><path d="M1253.26 234.21L1280.23 340.36" stroke="hsl(300, 100%, 21.7%)" stroke-width="1.5"></path><path d="M1253.26 234.21L1145.93 369.85" stroke="hsl(300, 100%, 21.7%)" stroke-width="1.5"></path><path d="M1253.26 234.21L1291.21 51.27" stroke="hsl(300, 100%, 21.7%)" stroke-width="1.5"></path><path d="M1280.23 340.36L1280.23 340.36" stroke="hsl(300, 100%, 21.7%)" stroke-width="1.5"></path><path d="M1280.23 340.36L1145.93 369.85" stroke="hsl(300, 100%, 21.7%)" stroke-width="1.5"></path><path d="M1280.23 340.36L1389.97 205.34" stroke="hsl(300, 100%, 21.7%)" stroke-width="1.5"></path><path d="M1280.23 340.36L1453.31 383.83" stroke="hsl(300, 100%, 21.7%)" stroke-width="1.5"></path><path d="M1280.23 340.36L1103.7 251.33" stroke="hsl(300, 100%, 21.7%)" stroke-width="1.5"></path><path d="M1280.23 340.36L1273.27 538.27" stroke="hsl(300, 100%, 21.7%)" stroke-width="1.5"></path><path d="M1273.27 538.27L1273.27 538.27" stroke="hsl(300, 100%, 21.7%)" stroke-width="1.5"></path><path d="M1273.27 538.27L1441.75 520.71" stroke="hsl(300, 100%, 21.7%)" stroke-width="1.5"></path><path d="M1273.27 538.27L1145.93 369.85" stroke="hsl(300, 100%, 21.7%)" stroke-width="1.5"></path><path d="M1273.27 538.27L1453.31 383.83" stroke="hsl(300, 100%, 21.7%)" stroke-width="1.5"></path><path d="M1398.31 -45.11L1398.31 -45.11" stroke="hsl(300, 100%, 21.7%)" stroke-width="1.5"></path><path d="M1398.31 -45.11L1445.43 74.4" stroke="hsl(300, 100%, 21.7%)" stroke-width="1.5"></path><path d="M1445.43 74.4L1445.43 74.4" stroke="hsl(300, 100%, 21.7%)" stroke-width="1.5"></path><path d="M1445.43 74.4L1569.04 60.92" stroke="hsl(300, 100%, 21.7%)" stroke-width="1.5"></path><path d="M1445.43 74.4L1389.97 205.34" stroke="hsl(300, 100%, 21.7%)" stroke-width="1.5"></path><path d="M1453.31 383.83L1453.31 383.83" stroke="hsl(300, 100%, 21.7%)" stroke-width="1.5"></path><path d="M1453.31 383.83L1441.75 520.71" stroke="hsl(300, 100%, 21.7%)" stroke-width="1.5"></path><path d="M1453.31 383.83L1603.72 377.44" stroke="hsl(300, 100%, 21.7%)" stroke-width="1.5"></path><path d="M1441.75 520.71L1441.75 520.71" stroke="hsl(300, 100%, 21.7%)" stroke-width="1.5"></path><path d="M1441.75 520.71L1537.9 547.87" stroke="hsl(300, 100%, 21.7%)" stroke-width="1.5"></path><path d="M1441.75 520.71L1603.72 377.44" stroke="hsl(300, 100%, 21.7%)" stroke-width="1.5"></path><path d="M1441.75 520.71L1280.23 340.36" stroke="hsl(300, 100%, 21.7%)" stroke-width="1.5"></path><path d="M1441.75 520.71L1571.95 250.99" stroke="hsl(300, 100%, 21.7%)" stroke-width="1.5"></path><path d="M1589.77 -43.14L1589.77 -43.14" stroke="hsl(300, 100%, 21.7%)" stroke-width="1.5"></path><path d="M1589.77 -43.14L1569.04 60.92" stroke="hsl(300, 100%, 21.7%)" stroke-width="1.5"></path><path d="M1589.77 -43.14L1445.43 74.4" stroke="hsl(300, 100%, 21.7%)" stroke-width="1.5"></path><path d="M1589.77 -43.14L1398.31 -45.11" stroke="hsl(300, 100%, 21.7%)" stroke-width="1.5"></path><path d="M1569.04 60.92L1569.04 60.92" stroke="hsl(300, 100%, 21.7%)" stroke-width="1.5"></path><path d="M1569.04 60.92L1571.95 250.99" stroke="hsl(300, 100%, 21.7%)" stroke-width="1.5"></path><path d="M1569.04 60.92L1398.31 -45.11" stroke="hsl(300, 100%, 21.7%)" stroke-width="1.5"></path><path d="M1569.04 60.92L1389.97 205.34" stroke="hsl(300, 100%, 21.7%)" stroke-width="1.5"></path><path d="M1569.04 60.92L1291.21 51.27" stroke="hsl(300, 100%, 21.7%)" stroke-width="1.5"></path><path d="M1603.72 377.44L1603.72 377.44" stroke="hsl(300, 100%, 21.7%)" stroke-width="1.5"></path><path d="M1603.72 377.44L1537.9 547.87" stroke="hsl(300, 100%, 21.7%)" stroke-width="1.5"></path><path d="M1537.9 547.87L1537.9 547.87" stroke="hsl(300, 100%, 21.7%)" stroke-width="1.5"></path><circle r="25" cx="43.41" cy="353.81" fill="url(#SvgjsRadialGradient1025)"></circle><circle r="25" cx="228.53" cy="363.97" fill="url(#SvgjsRadialGradient1025)"></circle><circle r="25" cx="537.81" cy="514.07" fill="url(#SvgjsRadialGradient1025)"></circle><circle r="25" cx="679.05" cy="379.95" fill="url(#SvgjsRadialGradient1025)"></circle><circle r="25" cx="640.02" cy="524.62" fill="url(#SvgjsRadialGradient1025)"></circle><circle r="25" cx="950.52" cy="226.8" fill="url(#SvgjsRadialGradient1025)"></circle><circle r="25" cx="1103.7" cy="251.33" fill="url(#SvgjsRadialGradient1025)"></circle><circle r="25" cx="1291.21" cy="51.27" fill="url(#SvgjsRadialGradient1025)"></circle><circle r="25" cx="1389.97" cy="205.34" fill="url(#SvgjsRadialGradient1025)"></circle><circle r="25" cx="1571.95" cy="250.99" fill="url(#SvgjsRadialGradient1025)"></circle><circle r="5" cx="-82.41" cy="368.74" fill="#aa80aa"></circle><circle r="5" cx="-44.43" cy="526.89" fill="#aa80aa"></circle><circle r="5" cx="261.63" cy="503.31" fill="#aa80aa"></circle><circle r="5" cx="381.74" cy="384.39" fill="#aa80aa"></circle><circle r="5" cx="514.57" cy="341" fill="#aa80aa"></circle><circle r="5" cx="806.98" cy="233.98" fill="#aa80aa"></circle><circle r="5" cx="822.55" cy="363.98" fill="#aa80aa"></circle><circle r="5" cx="859.69" cy="542.12" fill="#aa80aa"></circle><circle r="5" cx="1001.56" cy="382.91" fill="#aa80aa"></circle><circle r="5" cx="945.16" cy="519.24" fill="#aa80aa"></circle><circle r="5" cx="1103.41" cy="103.97" fill="#aa80aa"></circle><circle r="5" cx="1145.93" cy="369.85" fill="#aa80aa"></circle><circle r="5" cx="1135.12" cy="503.39" fill="#aa80aa"></circle><circle r="5" cx="1266.2" cy="-57.13" fill="#aa80aa"></circle><circle r="5" cx="1253.26" cy="234.21" fill="#aa80aa"></circle><circle r="5" cx="1280.23" cy="340.36" fill="#aa80aa"></circle><circle r="5" cx="1273.27" cy="538.27" fill="#aa80aa"></circle><circle r="5" cx="1398.31" cy="-45.11" fill="#aa80aa"></circle><circle r="5" cx="1445.43" cy="74.4" fill="#aa80aa"></circle><circle r="5" cx="1453.31" cy="383.83" fill="#aa80aa"></circle><circle r="5" cx="1441.75" cy="520.71" fill="#aa80aa"></circle><circle r="5" cx="1589.77" cy="-43.14" fill="#aa80aa"></circle><circle r="5" cx="1569.04" cy="60.92" fill="#aa80aa"></circle><circle r="5" cx="1603.72" cy="377.44" fill="#aa80aa"></circle><circle r="5" cx="1537.9" cy="547.87" fill="#aa80aa"></circle></g><defs><mask id="SvgjsMask1024"><rect width="1400" height="376" fill="#ffffff"></rect></mask><radialGradient id="SvgjsRadialGradient1025"><stop stop-color="#ffffff" offset="0.1"></stop><stop stop-color="rgba(85, 0, 85, 1)" offset="0.2"></stop><stop stop-color="rgba(85, 0, 85, 0)" offset="1"></stop></radialGradient></defs></svg>