<svg xmlns="http://www.w3.org/2000/svg" version="1.1" xmlns:xlink="http://www.w3.org/1999/xlink" xmlns:svgjs="http://svgjs.com/svgjs" width="1920" height="376" preserveAspectRatio="none" viewBox="0 0 1920 376"><g mask="url(&quot;#SvgjsMask2052&quot;)" fill="none"><rect width="1920" height="376" x="0" y="0" fill="url(#SvgjsLinearGradient2053)"></rect><path d="M-69.7 403.4L-69.7 403.4" stroke="rgba(68, 0, 68, 1)" stroke-width="1.5"></path><path d="M-69.7 403.4L-59.88 505.19" stroke="rgba(68, 0, 68, 1)" stroke-width="1.5"></path><path d="M-69.7 403.4L88.68 374.59" stroke="rgba(68, 0, 68, 1)" stroke-width="1.5"></path><path d="M-69.7 403.4L64.5 261.86" stroke="rgba(68, 0, 68, 1)" stroke-width="1.5"></path><path d="M-69.7 403.4L109.22 488.42" stroke="rgba(68, 0, 68, 1)" stroke-width="1.5"></path><path d="M-69.7 403.4L230.3 392.52" stroke="rgba(68, 0, 68, 1)" stroke-width="1.5"></path><path d="M-69.7 403.4L217.86 534.98" stroke="rgba(68, 0, 68, 1)" stroke-width="1.5"></path><path d="M-59.88 505.19L-59.88 505.19" stroke="rgba(68, 0, 68, 1)" stroke-width="1.5"></path><path d="M-59.88 505.19L109.22 488.42" stroke="rgba(68, 0, 68, 1)" stroke-width="1.5"></path><path d="M64.5 261.86L64.5 261.86" stroke="rgba(68, 0, 68, 1)" stroke-width="1.5"></path><path d="M64.5 261.86L88.68 374.59" stroke="rgba(68, 0, 68, 1)" stroke-width="1.5"></path><path d="M64.5 261.86L221.74 257.07" stroke="rgba(68, 0, 68, 1)" stroke-width="1.5"></path><path d="M88.68 374.59L88.68 374.59" stroke="rgba(68, 0, 68, 1)" stroke-width="1.5"></path><path d="M88.68 374.59L109.22 488.42" stroke="rgba(68, 0, 68, 1)" stroke-width="1.5"></path><path d="M88.68 374.59L230.3 392.52" stroke="rgba(68, 0, 68, 1)" stroke-width="1.5"></path><path d="M88.68 374.59L221.74 257.07" stroke="rgba(68, 0, 68, 1)" stroke-width="1.5"></path><path d="M109.22 488.42L109.22 488.42" stroke="rgba(68, 0, 68, 1)" stroke-width="1.5"></path><path d="M109.22 488.42L217.86 534.98" stroke="rgba(68, 0, 68, 1)" stroke-width="1.5"></path><path d="M109.22 488.42L230.3 392.52" stroke="rgba(68, 0, 68, 1)" stroke-width="1.5"></path><path d="M221.74 257.07L221.74 257.07" stroke="rgba(68, 0, 68, 1)" stroke-width="1.5"></path><path d="M221.74 257.07L339.58 243.32" stroke="rgba(68, 0, 68, 1)" stroke-width="1.5"></path><path d="M221.74 257.07L230.3 392.52" stroke="rgba(68, 0, 68, 1)" stroke-width="1.5"></path><path d="M230.3 392.52L230.3 392.52" stroke="rgba(68, 0, 68, 1)" stroke-width="1.5"></path><path d="M217.86 534.98L217.86 534.98" stroke="rgba(68, 0, 68, 1)" stroke-width="1.5"></path><path d="M217.86 534.98L230.3 392.52" stroke="rgba(68, 0, 68, 1)" stroke-width="1.5"></path><path d="M339.58 243.32L339.58 243.32" stroke="rgba(68, 0, 68, 1)" stroke-width="1.5"></path><path d="M339.58 243.32L361.17 338.63" stroke="rgba(68, 0, 68, 1)" stroke-width="1.5"></path><path d="M339.58 243.32L518.82 218.35" stroke="rgba(68, 0, 68, 1)" stroke-width="1.5"></path><path d="M339.58 243.32L230.3 392.52" stroke="rgba(68, 0, 68, 1)" stroke-width="1.5"></path><path d="M339.58 243.32L533.6 365.95" stroke="rgba(68, 0, 68, 1)" stroke-width="1.5"></path><path d="M339.58 243.32L64.5 261.86" stroke="rgba(68, 0, 68, 1)" stroke-width="1.5"></path><path d="M361.17 338.63L361.17 338.63" stroke="rgba(68, 0, 68, 1)" stroke-width="1.5"></path><path d="M361.17 338.63L230.3 392.52" stroke="rgba(68, 0, 68, 1)" stroke-width="1.5"></path><path d="M361.17 338.63L221.74 257.07" stroke="rgba(68, 0, 68, 1)" stroke-width="1.5"></path><path d="M380.63 558.32L380.63 558.32" stroke="rgba(68, 0, 68, 1)" stroke-width="1.5"></path><path d="M380.63 558.32L217.86 534.98" stroke="rgba(68, 0, 68, 1)" stroke-width="1.5"></path><path d="M518.82 218.35L518.82 218.35" stroke="rgba(68, 0, 68, 1)" stroke-width="1.5"></path><path d="M518.82 218.35L533.6 365.95" stroke="rgba(68, 0, 68, 1)" stroke-width="1.5"></path><path d="M518.82 218.35L666.83 231.92" stroke="rgba(68, 0, 68, 1)" stroke-width="1.5"></path><path d="M533.6 365.95L533.6 365.95" stroke="rgba(68, 0, 68, 1)" stroke-width="1.5"></path><path d="M533.6 365.95L546.52 505.7" stroke="rgba(68, 0, 68, 1)" stroke-width="1.5"></path><path d="M533.6 365.95L680.97 343.64" stroke="rgba(68, 0, 68, 1)" stroke-width="1.5"></path><path d="M533.6 365.95L361.17 338.63" stroke="rgba(68, 0, 68, 1)" stroke-width="1.5"></path><path d="M546.52 505.7L546.52 505.7" stroke="rgba(68, 0, 68, 1)" stroke-width="1.5"></path><path d="M546.52 505.7L693.61 508.7" stroke="rgba(68, 0, 68, 1)" stroke-width="1.5"></path><path d="M546.52 505.7L380.63 558.32" stroke="rgba(68, 0, 68, 1)" stroke-width="1.5"></path><path d="M666.83 231.92L666.83 231.92" stroke="rgba(68, 0, 68, 1)" stroke-width="1.5"></path><path d="M666.83 231.92L680.97 343.64" stroke="rgba(68, 0, 68, 1)" stroke-width="1.5"></path><path d="M666.83 231.92L814.41 232.5" stroke="rgba(68, 0, 68, 1)" stroke-width="1.5"></path><path d="M680.97 343.64L680.97 343.64" stroke="rgba(68, 0, 68, 1)" stroke-width="1.5"></path><path d="M693.61 508.7L693.61 508.7" stroke="rgba(68, 0, 68, 1)" stroke-width="1.5"></path><path d="M693.61 508.7L824.14 552.16" stroke="rgba(68, 0, 68, 1)" stroke-width="1.5"></path><path d="M814.41 232.5L814.41 232.5" stroke="rgba(68, 0, 68, 1)" stroke-width="1.5"></path><path d="M814.41 232.5L832.42 360.51" stroke="rgba(68, 0, 68, 1)" stroke-width="1.5"></path><path d="M814.41 232.5L971.29 219.72" stroke="rgba(68, 0, 68, 1)" stroke-width="1.5"></path><path d="M832.42 360.51L832.42 360.51" stroke="rgba(68, 0, 68, 1)" stroke-width="1.5"></path><path d="M832.42 360.51L955.73 406.37" stroke="rgba(68, 0, 68, 1)" stroke-width="1.5"></path><path d="M832.42 360.51L680.97 343.64" stroke="rgba(68, 0, 68, 1)" stroke-width="1.5"></path><path d="M832.42 360.51L824.14 552.16" stroke="rgba(68, 0, 68, 1)" stroke-width="1.5"></path><path d="M824.14 552.16L824.14 552.16" stroke="rgba(68, 0, 68, 1)" stroke-width="1.5"></path><path d="M824.14 552.16L946.73 524.86" stroke="rgba(68, 0, 68, 1)" stroke-width="1.5"></path><path d="M824.14 552.16L955.73 406.37" stroke="rgba(68, 0, 68, 1)" stroke-width="1.5"></path><path d="M824.14 552.16L680.97 343.64" stroke="rgba(68, 0, 68, 1)" stroke-width="1.5"></path><path d="M824.14 552.16L546.52 505.7" stroke="rgba(68, 0, 68, 1)" stroke-width="1.5"></path><path d="M971.29 219.72L971.29 219.72" stroke="rgba(68, 0, 68, 1)" stroke-width="1.5"></path><path d="M971.29 219.72L955.73 406.37" stroke="rgba(68, 0, 68, 1)" stroke-width="1.5"></path><path d="M971.29 219.72L1122.39 101.48" stroke="rgba(68, 0, 68, 1)" stroke-width="1.5"></path><path d="M971.29 219.72L832.42 360.51" stroke="rgba(68, 0, 68, 1)" stroke-width="1.5"></path><path d="M971.29 219.72L1117.04 365.63" stroke="rgba(68, 0, 68, 1)" stroke-width="1.5"></path><path d="M971.29 219.72L1240.69 242.47" stroke="rgba(68, 0, 68, 1)" stroke-width="1.5"></path><path d="M955.73 406.37L955.73 406.37" stroke="rgba(68, 0, 68, 1)" stroke-width="1.5"></path><path d="M955.73 406.37L946.73 524.86" stroke="rgba(68, 0, 68, 1)" stroke-width="1.5"></path><path d="M955.73 406.37L1117.04 365.63" stroke="rgba(68, 0, 68, 1)" stroke-width="1.5"></path><path d="M946.73 524.86L946.73 524.86" stroke="rgba(68, 0, 68, 1)" stroke-width="1.5"></path><path d="M946.73 524.86L832.42 360.51" stroke="rgba(68, 0, 68, 1)" stroke-width="1.5"></path><path d="M946.73 524.86L1117.04 365.63" stroke="rgba(68, 0, 68, 1)" stroke-width="1.5"></path><path d="M1122.39 101.48L1122.39 101.48" stroke="rgba(68, 0, 68, 1)" stroke-width="1.5"></path><path d="M1122.39 101.48L1269.12 61.6" stroke="rgba(68, 0, 68, 1)" stroke-width="1.5"></path><path d="M1117.04 365.63L1117.04 365.63" stroke="rgba(68, 0, 68, 1)" stroke-width="1.5"></path><path d="M1117.04 365.63L1240.69 242.47" stroke="rgba(68, 0, 68, 1)" stroke-width="1.5"></path><path d="M1117.04 365.63L1263.56 490.18" stroke="rgba(68, 0, 68, 1)" stroke-width="1.5"></path><path d="M1117.04 365.63L1311.57 411.18" stroke="rgba(68, 0, 68, 1)" stroke-width="1.5"></path><path d="M1243.29 -48.86L1243.29 -48.86" stroke="rgba(68, 0, 68, 1)" stroke-width="1.5"></path><path d="M1243.29 -48.86L1269.12 61.6" stroke="rgba(68, 0, 68, 1)" stroke-width="1.5"></path><path d="M1243.29 -48.86L1394.32 -108.9" stroke="rgba(68, 0, 68, 1)" stroke-width="1.5"></path><path d="M1269.12 61.6L1269.12 61.6" stroke="rgba(68, 0, 68, 1)" stroke-width="1.5"></path><path d="M1240.69 242.47L1240.69 242.47" stroke="rgba(68, 0, 68, 1)" stroke-width="1.5"></path><path d="M1240.69 242.47L1311.57 411.18" stroke="rgba(68, 0, 68, 1)" stroke-width="1.5"></path><path d="M1240.69 242.47L1269.12 61.6" stroke="rgba(68, 0, 68, 1)" stroke-width="1.5"></path><path d="M1240.69 242.47L1122.39 101.48" stroke="rgba(68, 0, 68, 1)" stroke-width="1.5"></path><path d="M1240.69 242.47L1448.65 215.74" stroke="rgba(68, 0, 68, 1)" stroke-width="1.5"></path><path d="M1240.69 242.47L1263.56 490.18" stroke="rgba(68, 0, 68, 1)" stroke-width="1.5"></path><path d="M1311.57 411.18L1311.57 411.18" stroke="rgba(68, 0, 68, 1)" stroke-width="1.5"></path><path d="M1311.57 411.18L1263.56 490.18" stroke="rgba(68, 0, 68, 1)" stroke-width="1.5"></path><path d="M1311.57 411.18L1404.91 500.55" stroke="rgba(68, 0, 68, 1)" stroke-width="1.5"></path><path d="M1311.57 411.18L1450.41 388.89" stroke="rgba(68, 0, 68, 1)" stroke-width="1.5"></path><path d="M1263.56 490.18L1263.56 490.18" stroke="rgba(68, 0, 68, 1)" stroke-width="1.5"></path><path d="M1263.56 490.18L1404.91 500.55" stroke="rgba(68, 0, 68, 1)" stroke-width="1.5"></path><path d="M1394.32 -108.9L1394.32 -108.9" stroke="rgba(68, 0, 68, 1)" stroke-width="1.5"></path><path d="M1394.32 -108.9L1438.14 53" stroke="rgba(68, 0, 68, 1)" stroke-width="1.5"></path><path d="M1394.32 -108.9L1269.12 61.6" stroke="rgba(68, 0, 68, 1)" stroke-width="1.5"></path><path d="M1394.32 -108.9L1596.7 -42.61" stroke="rgba(68, 0, 68, 1)" stroke-width="1.5"></path><path d="M1438.14 53L1438.14 53" stroke="rgba(68, 0, 68, 1)" stroke-width="1.5"></path><path d="M1438.14 53L1448.65 215.74" stroke="rgba(68, 0, 68, 1)" stroke-width="1.5"></path><path d="M1438.14 53L1269.12 61.6" stroke="rgba(68, 0, 68, 1)" stroke-width="1.5"></path><path d="M1438.14 53L1604.57 85.81" stroke="rgba(68, 0, 68, 1)" stroke-width="1.5"></path><path d="M1438.14 53L1596.7 -42.61" stroke="rgba(68, 0, 68, 1)" stroke-width="1.5"></path><path d="M1448.65 215.74L1448.65 215.74" stroke="rgba(68, 0, 68, 1)" stroke-width="1.5"></path><path d="M1448.65 215.74L1605.16 214.34" stroke="rgba(68, 0, 68, 1)" stroke-width="1.5"></path><path d="M1448.65 215.74L1450.41 388.89" stroke="rgba(68, 0, 68, 1)" stroke-width="1.5"></path><path d="M1450.41 388.89L1450.41 388.89" stroke="rgba(68, 0, 68, 1)" stroke-width="1.5"></path><path d="M1450.41 388.89L1569.97 381.66" stroke="rgba(68, 0, 68, 1)" stroke-width="1.5"></path><path d="M1450.41 388.89L1404.91 500.55" stroke="rgba(68, 0, 68, 1)" stroke-width="1.5"></path><path d="M1404.91 500.55L1404.91 500.55" stroke="rgba(68, 0, 68, 1)" stroke-width="1.5"></path><path d="M1596.7 -42.61L1596.7 -42.61" stroke="rgba(68, 0, 68, 1)" stroke-width="1.5"></path><path d="M1596.7 -42.61L1604.57 85.81" stroke="rgba(68, 0, 68, 1)" stroke-width="1.5"></path><path d="M1596.7 -42.61L1696.89 51.27" stroke="rgba(68, 0, 68, 1)" stroke-width="1.5"></path><path d="M1596.7 -42.61L1738.16 -52.39" stroke="rgba(68, 0, 68, 1)" stroke-width="1.5"></path><path d="M1604.57 85.81L1604.57 85.81" stroke="rgba(68, 0, 68, 1)" stroke-width="1.5"></path><path d="M1604.57 85.81L1696.89 51.27" stroke="rgba(68, 0, 68, 1)" stroke-width="1.5"></path><path d="M1604.57 85.81L1605.16 214.34" stroke="rgba(68, 0, 68, 1)" stroke-width="1.5"></path><path d="M1604.57 85.81L1738.16 -52.39" stroke="rgba(68, 0, 68, 1)" stroke-width="1.5"></path><path d="M1605.16 214.34L1605.16 214.34" stroke="rgba(68, 0, 68, 1)" stroke-width="1.5"></path><path d="M1569.97 381.66L1569.97 381.66" stroke="rgba(68, 0, 68, 1)" stroke-width="1.5"></path><path d="M1569.97 381.66L1569.12 490.25" stroke="rgba(68, 0, 68, 1)" stroke-width="1.5"></path><path d="M1569.97 381.66L1605.16 214.34" stroke="rgba(68, 0, 68, 1)" stroke-width="1.5"></path><path d="M1569.12 490.25L1569.12 490.25" stroke="rgba(68, 0, 68, 1)" stroke-width="1.5"></path><path d="M1569.12 490.25L1450.41 388.89" stroke="rgba(68, 0, 68, 1)" stroke-width="1.5"></path><path d="M1569.12 490.25L1404.91 500.55" stroke="rgba(68, 0, 68, 1)" stroke-width="1.5"></path><path d="M1569.12 490.25L1311.57 411.18" stroke="rgba(68, 0, 68, 1)" stroke-width="1.5"></path><path d="M1569.12 490.25L1605.16 214.34" stroke="rgba(68, 0, 68, 1)" stroke-width="1.5"></path><path d="M1738.16 -52.39L1738.16 -52.39" stroke="rgba(68, 0, 68, 1)" stroke-width="1.5"></path><path d="M1738.16 -52.39L1696.89 51.27" stroke="rgba(68, 0, 68, 1)" stroke-width="1.5"></path><path d="M1738.16 -52.39L1873.48 -95.84" stroke="rgba(68, 0, 68, 1)" stroke-width="1.5"></path><path d="M1696.89 51.27L1696.89 51.27" stroke="rgba(68, 0, 68, 1)" stroke-width="1.5"></path><path d="M1696.89 51.27L1877.93 38.78" stroke="rgba(68, 0, 68, 1)" stroke-width="1.5"></path><path d="M1696.89 51.27L1605.16 214.34" stroke="rgba(68, 0, 68, 1)" stroke-width="1.5"></path><path d="M1696.89 51.27L1839.14 208.21" stroke="rgba(68, 0, 68, 1)" stroke-width="1.5"></path><path d="M1873.48 -95.84L1873.48 -95.84" stroke="rgba(68, 0, 68, 1)" stroke-width="1.5"></path><path d="M1873.48 -95.84L1877.93 38.78" stroke="rgba(68, 0, 68, 1)" stroke-width="1.5"></path><path d="M1873.48 -95.84L2060.16 -70.9" stroke="rgba(68, 0, 68, 1)" stroke-width="1.5"></path><path d="M1873.48 -95.84L1696.89 51.27" stroke="rgba(68, 0, 68, 1)" stroke-width="1.5"></path><path d="M1873.48 -95.84L1596.7 -42.61" stroke="rgba(68, 0, 68, 1)" stroke-width="1.5"></path><path d="M1877.93 38.78L1877.93 38.78" stroke="rgba(68, 0, 68, 1)" stroke-width="1.5"></path><path d="M1877.93 38.78L1738.16 -52.39" stroke="rgba(68, 0, 68, 1)" stroke-width="1.5"></path><path d="M1877.93 38.78L1839.14 208.21" stroke="rgba(68, 0, 68, 1)" stroke-width="1.5"></path><path d="M1877.93 38.78L2060.16 -70.9" stroke="rgba(68, 0, 68, 1)" stroke-width="1.5"></path><path d="M1839.14 208.21L1839.14 208.21" stroke="rgba(68, 0, 68, 1)" stroke-width="1.5"></path><path d="M1839.14 208.21L2021.36 257.69" stroke="rgba(68, 0, 68, 1)" stroke-width="1.5"></path><path d="M1839.14 208.21L1867.35 400.56" stroke="rgba(68, 0, 68, 1)" stroke-width="1.5"></path><path d="M1867.35 400.56L1867.35 400.56" stroke="rgba(68, 0, 68, 1)" stroke-width="1.5"></path><path d="M1867.35 400.56L1898.76 526.4" stroke="rgba(68, 0, 68, 1)" stroke-width="1.5"></path><path d="M1867.35 400.56L2051.75 404.11" stroke="rgba(68, 0, 68, 1)" stroke-width="1.5"></path><path d="M1898.76 526.4L1898.76 526.4" stroke="rgba(68, 0, 68, 1)" stroke-width="1.5"></path><path d="M1898.76 526.4L2036.06 526.6" stroke="rgba(68, 0, 68, 1)" stroke-width="1.5"></path><path d="M2060.16 -70.9L2060.16 -70.9" stroke="rgba(68, 0, 68, 1)" stroke-width="1.5"></path><path d="M2021.36 257.69L2021.36 257.69" stroke="rgba(68, 0, 68, 1)" stroke-width="1.5"></path><path d="M2021.36 257.69L2051.75 404.11" stroke="rgba(68, 0, 68, 1)" stroke-width="1.5"></path><path d="M2021.36 257.69L1867.35 400.56" stroke="rgba(68, 0, 68, 1)" stroke-width="1.5"></path><path d="M2021.36 257.69L1877.93 38.78" stroke="rgba(68, 0, 68, 1)" stroke-width="1.5"></path><path d="M2051.75 404.11L2051.75 404.11" stroke="rgba(68, 0, 68, 1)" stroke-width="1.5"></path><path d="M2051.75 404.11L2036.06 526.6" stroke="rgba(68, 0, 68, 1)" stroke-width="1.5"></path><path d="M2051.75 404.11L1898.76 526.4" stroke="rgba(68, 0, 68, 1)" stroke-width="1.5"></path><path d="M2036.06 526.6L2036.06 526.6" stroke="rgba(68, 0, 68, 1)" stroke-width="1.5"></path><path d="M2036.06 526.6L1867.35 400.56" stroke="rgba(68, 0, 68, 1)" stroke-width="1.5"></path><path d="M2036.06 526.6L2021.36 257.69" stroke="rgba(68, 0, 68, 1)" stroke-width="1.5"></path><circle r="5" cx="-69.7" cy="403.4" fill="rgba(68, 0, 68, 1)"></circle><circle r="5" cx="-59.88" cy="505.19" fill="rgba(68, 0, 68, 1)"></circle><circle r="5" cx="64.5" cy="261.86" fill="rgba(68, 0, 68, 1)"></circle><circle r="5" cx="88.68" cy="374.59" fill="rgba(68, 0, 68, 1)"></circle><circle r="5" cx="109.22" cy="488.42" fill="rgba(68, 0, 68, 1)"></circle><circle r="5" cx="221.74" cy="257.07" fill="rgba(68, 0, 68, 1)"></circle><circle r="5" cx="230.3" cy="392.52" fill="rgba(68, 0, 68, 1)"></circle><circle r="5" cx="217.86" cy="534.98" fill="rgba(68, 0, 68, 1)"></circle><circle r="5" cx="339.58" cy="243.32" fill="rgba(68, 0, 68, 1)"></circle><circle r="5" cx="361.17" cy="338.63" fill="rgba(68, 0, 68, 1)"></circle><circle r="5" cx="380.63" cy="558.32" fill="rgba(68, 0, 68, 1)"></circle><circle r="5" cx="518.82" cy="218.35" fill="rgba(68, 0, 68, 1)"></circle><circle r="5" cx="533.6" cy="365.95" fill="rgba(68, 0, 68, 1)"></circle><circle r="5" cx="546.52" cy="505.7" fill="rgba(68, 0, 68, 1)"></circle><circle r="5" cx="666.83" cy="231.92" fill="rgba(68, 0, 68, 1)"></circle><circle r="5" cx="680.97" cy="343.64" fill="rgba(68, 0, 68, 1)"></circle><circle r="5" cx="693.61" cy="508.7" fill="rgba(68, 0, 68, 1)"></circle><circle r="5" cx="814.41" cy="232.5" fill="rgba(68, 0, 68, 1)"></circle><circle r="5" cx="832.42" cy="360.51" fill="rgba(68, 0, 68, 1)"></circle><circle r="5" cx="824.14" cy="552.16" fill="rgba(68, 0, 68, 1)"></circle><circle r="5" cx="971.29" cy="219.72" fill="rgba(68, 0, 68, 1)"></circle><circle r="5" cx="955.73" cy="406.37" fill="rgba(68, 0, 68, 1)"></circle><circle r="5" cx="946.73" cy="524.86" fill="rgba(68, 0, 68, 1)"></circle><circle r="5" cx="1122.39" cy="101.48" fill="rgba(68, 0, 68, 1)"></circle><circle r="5" cx="1117.04" cy="365.63" fill="rgba(68, 0, 68, 1)"></circle><circle r="5" cx="1243.29" cy="-48.86" fill="rgba(68, 0, 68, 1)"></circle><circle r="5" cx="1269.12" cy="61.6" fill="rgba(68, 0, 68, 1)"></circle><circle r="5" cx="1240.69" cy="242.47" fill="rgba(68, 0, 68, 1)"></circle><circle r="5" cx="1311.57" cy="411.18" fill="rgba(68, 0, 68, 1)"></circle><circle r="5" cx="1263.56" cy="490.18" fill="rgba(68, 0, 68, 1)"></circle><circle r="5" cx="1394.32" cy="-108.9" fill="rgba(68, 0, 68, 1)"></circle><circle r="5" cx="1438.14" cy="53" fill="rgba(68, 0, 68, 1)"></circle><circle r="5" cx="1448.65" cy="215.74" fill="rgba(68, 0, 68, 1)"></circle><circle r="5" cx="1450.41" cy="388.89" fill="rgba(68, 0, 68, 1)"></circle><circle r="5" cx="1404.91" cy="500.55" fill="rgba(68, 0, 68, 1)"></circle><circle r="5" cx="1596.7" cy="-42.61" fill="rgba(68, 0, 68, 1)"></circle><circle r="5" cx="1604.57" cy="85.81" fill="rgba(68, 0, 68, 1)"></circle><circle r="5" cx="1605.16" cy="214.34" fill="rgba(68, 0, 68, 1)"></circle><circle r="5" cx="1569.97" cy="381.66" fill="rgba(68, 0, 68, 1)"></circle><circle r="5" cx="1569.12" cy="490.25" fill="rgba(68, 0, 68, 1)"></circle><circle r="5" cx="1738.16" cy="-52.39" fill="rgba(68, 0, 68, 1)"></circle><circle r="5" cx="1696.89" cy="51.27" fill="rgba(68, 0, 68, 1)"></circle><circle r="5" cx="1873.48" cy="-95.84" fill="rgba(68, 0, 68, 1)"></circle><circle r="5" cx="1877.93" cy="38.78" fill="rgba(68, 0, 68, 1)"></circle><circle r="5" cx="1839.14" cy="208.21" fill="rgba(68, 0, 68, 1)"></circle><circle r="5" cx="1867.35" cy="400.56" fill="rgba(68, 0, 68, 1)"></circle><circle r="5" cx="1898.76" cy="526.4" fill="rgba(68, 0, 68, 1)"></circle><circle r="5" cx="2060.16" cy="-70.9" fill="rgba(68, 0, 68, 1)"></circle><circle r="5" cx="2021.36" cy="257.69" fill="rgba(68, 0, 68, 1)"></circle><circle r="5" cx="2051.75" cy="404.11" fill="rgba(68, 0, 68, 1)"></circle><circle r="5" cx="2036.06" cy="526.6" fill="rgba(68, 0, 68, 1)"></circle><path d="M204.21 344.33L204.21 344.33" stroke="hsl(300, 100%, 21.7%)" stroke-width="1.5"></path><path d="M204.21 344.33L219.31 496.7" stroke="hsl(300, 100%, 21.7%)" stroke-width="1.5"></path><path d="M359.84 527.05L359.84 527.05" stroke="hsl(300, 100%, 21.7%)" stroke-width="1.5"></path><path d="M359.84 527.05L372.13 394.91" stroke="hsl(300, 100%, 21.7%)" stroke-width="1.5"></path><path d="M359.84 527.05L219.31 496.7" stroke="hsl(300, 100%, 21.7%)" stroke-width="1.5"></path><path d="M359.84 527.05L559.45 524.18" stroke="hsl(300, 100%, 21.7%)" stroke-width="1.5"></path><path d="M692.81 544.11L692.81 544.11" stroke="hsl(300, 100%, 21.7%)" stroke-width="1.5"></path><path d="M692.81 544.11L559.45 524.18" stroke="hsl(300, 100%, 21.7%)" stroke-width="1.5"></path><path d="M692.81 544.11L659.4 399.84" stroke="hsl(300, 100%, 21.7%)" stroke-width="1.5"></path><path d="M692.81 544.11L820.78 381.16" stroke="hsl(300, 100%, 21.7%)" stroke-width="1.5"></path><path d="M692.81 544.11L531.48 404.36" stroke="hsl(300, 100%, 21.7%)" stroke-width="1.5"></path><path d="M1004.23 395.56L1004.23 395.56" stroke="hsl(300, 100%, 21.7%)" stroke-width="1.5"></path><path d="M1004.23 395.56L1143.62 354.46" stroke="hsl(300, 100%, 21.7%)" stroke-width="1.5"></path><path d="M1407.69 260.67L1407.69 260.67" stroke="hsl(300, 100%, 21.7%)" stroke-width="1.5"></path><path d="M1407.69 260.67L1279.83 255.49" stroke="hsl(300, 100%, 21.7%)" stroke-width="1.5"></path><path d="M1407.69 260.67L1425.3 400.49" stroke="hsl(300, 100%, 21.7%)" stroke-width="1.5"></path><path d="M1407.69 260.67L1300.34 388.56" stroke="hsl(300, 100%, 21.7%)" stroke-width="1.5"></path><path d="M1407.69 260.67L1577.79 357.91" stroke="hsl(300, 100%, 21.7%)" stroke-width="1.5"></path><path d="M1407.69 260.67L1611.09 105.33" stroke="hsl(300, 100%, 21.7%)" stroke-width="1.5"></path><path d="M1407.69 260.67L1143.1 202.68" stroke="hsl(300, 100%, 21.7%)" stroke-width="1.5"></path><path d="M1446.24 556.91L1446.24 556.91" stroke="hsl(300, 100%, 21.7%)" stroke-width="1.5"></path><path d="M1446.24 556.91L1294.15 552.98" stroke="hsl(300, 100%, 21.7%)" stroke-width="1.5"></path><path d="M1446.24 556.91L1425.3 400.49" stroke="hsl(300, 100%, 21.7%)" stroke-width="1.5"></path><path d="M1566.25 -75.54L1566.25 -75.54" stroke="hsl(300, 100%, 21.7%)" stroke-width="1.5"></path><path d="M1566.25 -75.54L1721.61 -89.01" stroke="hsl(300, 100%, 21.7%)" stroke-width="1.5"></path><path d="M1566.25 -75.54L1611.09 105.33" stroke="hsl(300, 100%, 21.7%)" stroke-width="1.5"></path><path d="M-78.98 382.87L-78.98 382.87" stroke="hsl(300, 100%, 21.7%)" stroke-width="1.5"></path><path d="M-78.98 382.87L204.21 344.33" stroke="hsl(300, 100%, 21.7%)" stroke-width="1.5"></path><path d="M-78.98 382.87L219.31 496.7" stroke="hsl(300, 100%, 21.7%)" stroke-width="1.5"></path><path d="M-78.98 382.87L372.13 394.91" stroke="hsl(300, 100%, 21.7%)" stroke-width="1.5"></path><path d="M-78.98 382.87L359.84 527.05" stroke="hsl(300, 100%, 21.7%)" stroke-width="1.5"></path><path d="M219.31 496.7L219.31 496.7" stroke="hsl(300, 100%, 21.7%)" stroke-width="1.5"></path><path d="M219.31 496.7L372.13 394.91" stroke="hsl(300, 100%, 21.7%)" stroke-width="1.5"></path><path d="M219.31 496.7L531.48 404.36" stroke="hsl(300, 100%, 21.7%)" stroke-width="1.5"></path><path d="M372.13 394.91L372.13 394.91" stroke="hsl(300, 100%, 21.7%)" stroke-width="1.5"></path><path d="M372.13 394.91L531.48 404.36" stroke="hsl(300, 100%, 21.7%)" stroke-width="1.5"></path><path d="M372.13 394.91L204.21 344.33" stroke="hsl(300, 100%, 21.7%)" stroke-width="1.5"></path><path d="M372.13 394.91L559.45 524.18" stroke="hsl(300, 100%, 21.7%)" stroke-width="1.5"></path><path d="M372.13 394.91L659.4 399.84" stroke="hsl(300, 100%, 21.7%)" stroke-width="1.5"></path><path d="M531.48 404.36L531.48 404.36" stroke="hsl(300, 100%, 21.7%)" stroke-width="1.5"></path><path d="M531.48 404.36L559.45 524.18" stroke="hsl(300, 100%, 21.7%)" stroke-width="1.5"></path><path d="M531.48 404.36L659.4 399.84" stroke="hsl(300, 100%, 21.7%)" stroke-width="1.5"></path><path d="M531.48 404.36L359.84 527.05" stroke="hsl(300, 100%, 21.7%)" stroke-width="1.5"></path><path d="M559.45 524.18L559.45 524.18" stroke="hsl(300, 100%, 21.7%)" stroke-width="1.5"></path><path d="M559.45 524.18L659.4 399.84" stroke="hsl(300, 100%, 21.7%)" stroke-width="1.5"></path><path d="M659.4 399.84L659.4 399.84" stroke="hsl(300, 100%, 21.7%)" stroke-width="1.5"></path><path d="M820.78 381.16L820.78 381.16" stroke="hsl(300, 100%, 21.7%)" stroke-width="1.5"></path><path d="M820.78 381.16L659.4 399.84" stroke="hsl(300, 100%, 21.7%)" stroke-width="1.5"></path><path d="M1003.16 558.75L1003.16 558.75" stroke="hsl(300, 100%, 21.7%)" stroke-width="1.5"></path><path d="M1003.16 558.75L1119.35 507.91" stroke="hsl(300, 100%, 21.7%)" stroke-width="1.5"></path><path d="M1003.16 558.75L1004.23 395.56" stroke="hsl(300, 100%, 21.7%)" stroke-width="1.5"></path><path d="M1143.1 202.68L1143.1 202.68" stroke="hsl(300, 100%, 21.7%)" stroke-width="1.5"></path><path d="M1143.1 202.68L1279.83 255.49" stroke="hsl(300, 100%, 21.7%)" stroke-width="1.5"></path><path d="M1143.1 202.68L1143.62 354.46" stroke="hsl(300, 100%, 21.7%)" stroke-width="1.5"></path><path d="M1143.1 202.68L1004.23 395.56" stroke="hsl(300, 100%, 21.7%)" stroke-width="1.5"></path><path d="M1143.1 202.68L1300.34 388.56" stroke="hsl(300, 100%, 21.7%)" stroke-width="1.5"></path><path d="M1143.1 202.68L1119.35 507.91" stroke="hsl(300, 100%, 21.7%)" stroke-width="1.5"></path><path d="M1143.62 354.46L1143.62 354.46" stroke="hsl(300, 100%, 21.7%)" stroke-width="1.5"></path><path d="M1143.62 354.46L1119.35 507.91" stroke="hsl(300, 100%, 21.7%)" stroke-width="1.5"></path><path d="M1143.62 354.46L1300.34 388.56" stroke="hsl(300, 100%, 21.7%)" stroke-width="1.5"></path><path d="M1119.35 507.91L1119.35 507.91" stroke="hsl(300, 100%, 21.7%)" stroke-width="1.5"></path><path d="M1119.35 507.91L1004.23 395.56" stroke="hsl(300, 100%, 21.7%)" stroke-width="1.5"></path><path d="M1119.35 507.91L1294.15 552.98" stroke="hsl(300, 100%, 21.7%)" stroke-width="1.5"></path><path d="M1119.35 507.91L1300.34 388.56" stroke="hsl(300, 100%, 21.7%)" stroke-width="1.5"></path><path d="M1279.83 255.49L1279.83 255.49" stroke="hsl(300, 100%, 21.7%)" stroke-width="1.5"></path><path d="M1300.34 388.56L1300.34 388.56" stroke="hsl(300, 100%, 21.7%)" stroke-width="1.5"></path><path d="M1300.34 388.56L1425.3 400.49" stroke="hsl(300, 100%, 21.7%)" stroke-width="1.5"></path><path d="M1300.34 388.56L1279.83 255.49" stroke="hsl(300, 100%, 21.7%)" stroke-width="1.5"></path><path d="M1294.15 552.98L1294.15 552.98" stroke="hsl(300, 100%, 21.7%)" stroke-width="1.5"></path><path d="M1294.15 552.98L1300.34 388.56" stroke="hsl(300, 100%, 21.7%)" stroke-width="1.5"></path><path d="M1294.15 552.98L1425.3 400.49" stroke="hsl(300, 100%, 21.7%)" stroke-width="1.5"></path><path d="M1425.3 400.49L1425.3 400.49" stroke="hsl(300, 100%, 21.7%)" stroke-width="1.5"></path><path d="M1425.3 400.49L1577.79 357.91" stroke="hsl(300, 100%, 21.7%)" stroke-width="1.5"></path><path d="M1425.3 400.49L1603.12 493.82" stroke="hsl(300, 100%, 21.7%)" stroke-width="1.5"></path><path d="M1611.09 105.33L1611.09 105.33" stroke="hsl(300, 100%, 21.7%)" stroke-width="1.5"></path><path d="M1611.09 105.33L1707.53 110.86" stroke="hsl(300, 100%, 21.7%)" stroke-width="1.5"></path><path d="M1611.09 105.33L1712.5 251.85" stroke="hsl(300, 100%, 21.7%)" stroke-width="1.5"></path><path d="M1611.09 105.33L1721.61 -89.01" stroke="hsl(300, 100%, 21.7%)" stroke-width="1.5"></path><path d="M1577.79 357.91L1577.79 357.91" stroke="hsl(300, 100%, 21.7%)" stroke-width="1.5"></path><path d="M1577.79 357.91L1696.92 357.36" stroke="hsl(300, 100%, 21.7%)" stroke-width="1.5"></path><path d="M1577.79 357.91L1603.12 493.82" stroke="hsl(300, 100%, 21.7%)" stroke-width="1.5"></path><path d="M1577.79 357.91L1712.5 251.85" stroke="hsl(300, 100%, 21.7%)" stroke-width="1.5"></path><path d="M1577.79 357.91L1700.58 537.68" stroke="hsl(300, 100%, 21.7%)" stroke-width="1.5"></path><path d="M1603.12 493.82L1603.12 493.82" stroke="hsl(300, 100%, 21.7%)" stroke-width="1.5"></path><path d="M1603.12 493.82L1700.58 537.68" stroke="hsl(300, 100%, 21.7%)" stroke-width="1.5"></path><path d="M1603.12 493.82L1696.92 357.36" stroke="hsl(300, 100%, 21.7%)" stroke-width="1.5"></path><path d="M1603.12 493.82L1446.24 556.91" stroke="hsl(300, 100%, 21.7%)" stroke-width="1.5"></path><path d="M1721.61 -89.01L1721.61 -89.01" stroke="hsl(300, 100%, 21.7%)" stroke-width="1.5"></path><path d="M1721.61 -89.01L1848.4 -42.29" stroke="hsl(300, 100%, 21.7%)" stroke-width="1.5"></path><path d="M1721.61 -89.01L1707.53 110.86" stroke="hsl(300, 100%, 21.7%)" stroke-width="1.5"></path><path d="M1707.53 110.86L1707.53 110.86" stroke="hsl(300, 100%, 21.7%)" stroke-width="1.5"></path><path d="M1707.53 110.86L1712.5 251.85" stroke="hsl(300, 100%, 21.7%)" stroke-width="1.5"></path><path d="M1712.5 251.85L1712.5 251.85" stroke="hsl(300, 100%, 21.7%)" stroke-width="1.5"></path><path d="M1712.5 251.85L1696.92 357.36" stroke="hsl(300, 100%, 21.7%)" stroke-width="1.5"></path><path d="M1712.5 251.85L1852.2 388.45" stroke="hsl(300, 100%, 21.7%)" stroke-width="1.5"></path><path d="M1712.5 251.85L1889.34 87.15" stroke="hsl(300, 100%, 21.7%)" stroke-width="1.5"></path><path d="M1696.92 357.36L1696.92 357.36" stroke="hsl(300, 100%, 21.7%)" stroke-width="1.5"></path><path d="M1700.58 537.68L1700.58 537.68" stroke="hsl(300, 100%, 21.7%)" stroke-width="1.5"></path><path d="M1700.58 537.68L1848.99 540.95" stroke="hsl(300, 100%, 21.7%)" stroke-width="1.5"></path><path d="M1700.58 537.68L1696.92 357.36" stroke="hsl(300, 100%, 21.7%)" stroke-width="1.5"></path><path d="M1700.58 537.68L1852.2 388.45" stroke="hsl(300, 100%, 21.7%)" stroke-width="1.5"></path><path d="M1848.4 -42.29L1848.4 -42.29" stroke="hsl(300, 100%, 21.7%)" stroke-width="1.5"></path><path d="M1848.4 -42.29L1889.34 87.15" stroke="hsl(300, 100%, 21.7%)" stroke-width="1.5"></path><path d="M1848.4 -42.29L1999.78 -61.51" stroke="hsl(300, 100%, 21.7%)" stroke-width="1.5"></path><path d="M1848.4 -42.29L1707.53 110.86" stroke="hsl(300, 100%, 21.7%)" stroke-width="1.5"></path><path d="M1848.4 -42.29L1991.03 110.75" stroke="hsl(300, 100%, 21.7%)" stroke-width="1.5"></path><path d="M1889.34 87.15L1889.34 87.15" stroke="hsl(300, 100%, 21.7%)" stroke-width="1.5"></path><path d="M1889.34 87.15L1991.03 110.75" stroke="hsl(300, 100%, 21.7%)" stroke-width="1.5"></path><path d="M1889.34 87.15L1707.53 110.86" stroke="hsl(300, 100%, 21.7%)" stroke-width="1.5"></path><path d="M1889.34 87.15L1999.78 -61.51" stroke="hsl(300, 100%, 21.7%)" stroke-width="1.5"></path><path d="M1889.34 87.15L2027.27 251.91" stroke="hsl(300, 100%, 21.7%)" stroke-width="1.5"></path><path d="M1852.2 388.45L1852.2 388.45" stroke="hsl(300, 100%, 21.7%)" stroke-width="1.5"></path><path d="M1852.2 388.45L1848.99 540.95" stroke="hsl(300, 100%, 21.7%)" stroke-width="1.5"></path><path d="M1852.2 388.45L1696.92 357.36" stroke="hsl(300, 100%, 21.7%)" stroke-width="1.5"></path><path d="M1852.2 388.45L2002.73 542.84" stroke="hsl(300, 100%, 21.7%)" stroke-width="1.5"></path><path d="M1848.99 540.95L1848.99 540.95" stroke="hsl(300, 100%, 21.7%)" stroke-width="1.5"></path><path d="M1848.99 540.95L2002.73 542.84" stroke="hsl(300, 100%, 21.7%)" stroke-width="1.5"></path><path d="M1848.99 540.95L1696.92 357.36" stroke="hsl(300, 100%, 21.7%)" stroke-width="1.5"></path><path d="M1848.99 540.95L1603.12 493.82" stroke="hsl(300, 100%, 21.7%)" stroke-width="1.5"></path><path d="M1999.78 -61.51L1999.78 -61.51" stroke="hsl(300, 100%, 21.7%)" stroke-width="1.5"></path><path d="M1999.78 -61.51L1991.03 110.75" stroke="hsl(300, 100%, 21.7%)" stroke-width="1.5"></path><path d="M1991.03 110.75L1991.03 110.75" stroke="hsl(300, 100%, 21.7%)" stroke-width="1.5"></path><path d="M1991.03 110.75L2027.27 251.91" stroke="hsl(300, 100%, 21.7%)" stroke-width="1.5"></path><path d="M2027.27 251.91L2027.27 251.91" stroke="hsl(300, 100%, 21.7%)" stroke-width="1.5"></path><path d="M2027.27 251.91L1852.2 388.45" stroke="hsl(300, 100%, 21.7%)" stroke-width="1.5"></path><path d="M2002.73 542.84L2002.73 542.84" stroke="hsl(300, 100%, 21.7%)" stroke-width="1.5"></path><path d="M2002.73 542.84L2027.27 251.91" stroke="hsl(300, 100%, 21.7%)" stroke-width="1.5"></path><path d="M2002.73 542.84L1700.58 537.68" stroke="hsl(300, 100%, 21.7%)" stroke-width="1.5"></path><path d="M2002.73 542.84L1696.92 357.36" stroke="hsl(300, 100%, 21.7%)" stroke-width="1.5"></path><circle r="25" cx="204.21" cy="344.33" fill="url(#SvgjsRadialGradient2054)"></circle><circle r="25" cx="359.84" cy="527.05" fill="url(#SvgjsRadialGradient2054)"></circle><circle r="25" cx="692.81" cy="544.11" fill="url(#SvgjsRadialGradient2054)"></circle><circle r="25" cx="1004.23" cy="395.56" fill="url(#SvgjsRadialGradient2054)"></circle><circle r="25" cx="1407.69" cy="260.67" fill="url(#SvgjsRadialGradient2054)"></circle><circle r="25" cx="1446.24" cy="556.91" fill="url(#SvgjsRadialGradient2054)"></circle><circle r="25" cx="1566.25" cy="-75.54" fill="url(#SvgjsRadialGradient2054)"></circle><circle r="5" cx="-78.98" cy="382.87" fill="#aa80aa"></circle><circle r="5" cx="219.31" cy="496.7" fill="#aa80aa"></circle><circle r="5" cx="372.13" cy="394.91" fill="#aa80aa"></circle><circle r="5" cx="531.48" cy="404.36" fill="#aa80aa"></circle><circle r="5" cx="559.45" cy="524.18" fill="#aa80aa"></circle><circle r="5" cx="659.4" cy="399.84" fill="#aa80aa"></circle><circle r="5" cx="820.78" cy="381.16" fill="#aa80aa"></circle><circle r="5" cx="1003.16" cy="558.75" fill="#aa80aa"></circle><circle r="5" cx="1143.1" cy="202.68" fill="#aa80aa"></circle><circle r="5" cx="1143.62" cy="354.46" fill="#aa80aa"></circle><circle r="5" cx="1119.35" cy="507.91" fill="#aa80aa"></circle><circle r="5" cx="1279.83" cy="255.49" fill="#aa80aa"></circle><circle r="5" cx="1300.34" cy="388.56" fill="#aa80aa"></circle><circle r="5" cx="1294.15" cy="552.98" fill="#aa80aa"></circle><circle r="5" cx="1425.3" cy="400.49" fill="#aa80aa"></circle><circle r="5" cx="1611.09" cy="105.33" fill="#aa80aa"></circle><circle r="5" cx="1577.79" cy="357.91" fill="#aa80aa"></circle><circle r="5" cx="1603.12" cy="493.82" fill="#aa80aa"></circle><circle r="5" cx="1721.61" cy="-89.01" fill="#aa80aa"></circle><circle r="5" cx="1707.53" cy="110.86" fill="#aa80aa"></circle><circle r="5" cx="1712.5" cy="251.85" fill="#aa80aa"></circle><circle r="5" cx="1696.92" cy="357.36" fill="#aa80aa"></circle><circle r="5" cx="1700.58" cy="537.68" fill="#aa80aa"></circle><circle r="5" cx="1848.4" cy="-42.29" fill="#aa80aa"></circle><circle r="5" cx="1889.34" cy="87.15" fill="#aa80aa"></circle><circle r="5" cx="1852.2" cy="388.45" fill="#aa80aa"></circle><circle r="5" cx="1848.99" cy="540.95" fill="#aa80aa"></circle><circle r="5" cx="1999.78" cy="-61.51" fill="#aa80aa"></circle><circle r="5" cx="1991.03" cy="110.75" fill="#aa80aa"></circle><circle r="5" cx="2027.27" cy="251.91" fill="#aa80aa"></circle><circle r="5" cx="2002.73" cy="542.84" fill="#aa80aa"></circle></g><defs><mask id="SvgjsMask2052"><rect width="1920" height="376" fill="#ffffff"></rect></mask><linearGradient x1="50%" y1="0%" x2="50%" y2="100%" gradientUnits="userSpaceOnUse" id="SvgjsLinearGradient2053"><stop stop-color="rgba(51, 0, 51, 1)" offset="0.04"></stop><stop stop-color="rgba(255, 255, 255, 1)" offset="1"></stop></linearGradient><radialGradient id="SvgjsRadialGradient2054"><stop stop-color="#ffffff" offset="0.1"></stop><stop stop-color="rgba(85, 0, 85, 1)" offset="0.2"></stop><stop stop-color="rgba(85, 0, 85, 0)" offset="1"></stop></radialGradient></defs></svg>