<svg xmlns="http://www.w3.org/2000/svg" version="1.1" xmlns:xlink="http://www.w3.org/1999/xlink" xmlns:svgjs="http://svgjs.com/svgjs" width="1400" height="376" preserveAspectRatio="none" viewBox="0 0 1400 376"><g mask="url(&quot;#SvgjsMask1953&quot;)" fill="none"><rect width="1400" height="376" x="0" y="0" fill="url(#SvgjsLinearGradient1954)"></rect><path d="M-43.89 256.23L-43.89 256.23" stroke="rgba(68, 0, 68, 1)" stroke-width="1.5"></path><path d="M-43.89 256.23L-65.54 407.84" stroke="rgba(68, 0, 68, 1)" stroke-width="1.5"></path><path d="M-43.89 256.23L96.12 348.4" stroke="rgba(68, 0, 68, 1)" stroke-width="1.5"></path><path d="M-43.89 256.23L205.58 234.41" stroke="rgba(68, 0, 68, 1)" stroke-width="1.5"></path><path d="M-43.89 256.23L-55.98 523.35" stroke="rgba(68, 0, 68, 1)" stroke-width="1.5"></path><path d="M-43.89 256.23L219.82 362.33" stroke="rgba(68, 0, 68, 1)" stroke-width="1.5"></path><path d="M-43.89 256.23L219.92 502.7" stroke="rgba(68, 0, 68, 1)" stroke-width="1.5"></path><path d="M-65.54 407.84L-65.54 407.84" stroke="rgba(68, 0, 68, 1)" stroke-width="1.5"></path><path d="M-65.54 407.84L-55.98 523.35" stroke="rgba(68, 0, 68, 1)" stroke-width="1.5"></path><path d="M-65.54 407.84L96.12 348.4" stroke="rgba(68, 0, 68, 1)" stroke-width="1.5"></path><path d="M-65.54 407.84L219.82 362.33" stroke="rgba(68, 0, 68, 1)" stroke-width="1.5"></path><path d="M-65.54 407.84L219.92 502.7" stroke="rgba(68, 0, 68, 1)" stroke-width="1.5"></path><path d="M-55.98 523.35L-55.98 523.35" stroke="rgba(68, 0, 68, 1)" stroke-width="1.5"></path><path d="M-55.98 523.35L96.12 348.4" stroke="rgba(68, 0, 68, 1)" stroke-width="1.5"></path><path d="M-55.98 523.35L219.92 502.7" stroke="rgba(68, 0, 68, 1)" stroke-width="1.5"></path><path d="M96.12 348.4L96.12 348.4" stroke="rgba(68, 0, 68, 1)" stroke-width="1.5"></path><path d="M96.12 348.4L219.82 362.33" stroke="rgba(68, 0, 68, 1)" stroke-width="1.5"></path><path d="M96.12 348.4L205.58 234.41" stroke="rgba(68, 0, 68, 1)" stroke-width="1.5"></path><path d="M205.58 234.41L205.58 234.41" stroke="rgba(68, 0, 68, 1)" stroke-width="1.5"></path><path d="M205.58 234.41L219.82 362.33" stroke="rgba(68, 0, 68, 1)" stroke-width="1.5"></path><path d="M205.58 234.41L364.37 236.31" stroke="rgba(68, 0, 68, 1)" stroke-width="1.5"></path><path d="M205.58 234.41L356.86 384.24" stroke="rgba(68, 0, 68, 1)" stroke-width="1.5"></path><path d="M219.82 362.33L219.82 362.33" stroke="rgba(68, 0, 68, 1)" stroke-width="1.5"></path><path d="M219.82 362.33L356.86 384.24" stroke="rgba(68, 0, 68, 1)" stroke-width="1.5"></path><path d="M219.92 502.7L219.92 502.7" stroke="rgba(68, 0, 68, 1)" stroke-width="1.5"></path><path d="M219.92 502.7L219.82 362.33" stroke="rgba(68, 0, 68, 1)" stroke-width="1.5"></path><path d="M219.92 502.7L356.86 384.24" stroke="rgba(68, 0, 68, 1)" stroke-width="1.5"></path><path d="M219.92 502.7L402.6 558.95" stroke="rgba(68, 0, 68, 1)" stroke-width="1.5"></path><path d="M364.37 236.31L364.37 236.31" stroke="rgba(68, 0, 68, 1)" stroke-width="1.5"></path><path d="M364.37 236.31L356.86 384.24" stroke="rgba(68, 0, 68, 1)" stroke-width="1.5"></path><path d="M364.37 236.31L541.09 237.14" stroke="rgba(68, 0, 68, 1)" stroke-width="1.5"></path><path d="M364.37 236.31L219.82 362.33" stroke="rgba(68, 0, 68, 1)" stroke-width="1.5"></path><path d="M364.37 236.31L557.82 362.34" stroke="rgba(68, 0, 68, 1)" stroke-width="1.5"></path><path d="M364.37 236.31L494.77 490.11" stroke="rgba(68, 0, 68, 1)" stroke-width="1.5"></path><path d="M356.86 384.24L356.86 384.24" stroke="rgba(68, 0, 68, 1)" stroke-width="1.5"></path><path d="M356.86 384.24L494.77 490.11" stroke="rgba(68, 0, 68, 1)" stroke-width="1.5"></path><path d="M356.86 384.24L402.6 558.95" stroke="rgba(68, 0, 68, 1)" stroke-width="1.5"></path><path d="M356.86 384.24L557.82 362.34" stroke="rgba(68, 0, 68, 1)" stroke-width="1.5"></path><path d="M402.6 558.95L402.6 558.95" stroke="rgba(68, 0, 68, 1)" stroke-width="1.5"></path><path d="M402.6 558.95L494.77 490.11" stroke="rgba(68, 0, 68, 1)" stroke-width="1.5"></path><path d="M402.6 558.95L557.82 362.34" stroke="rgba(68, 0, 68, 1)" stroke-width="1.5"></path><path d="M402.6 558.95L651.61 518.87" stroke="rgba(68, 0, 68, 1)" stroke-width="1.5"></path><path d="M541.09 237.14L541.09 237.14" stroke="rgba(68, 0, 68, 1)" stroke-width="1.5"></path><path d="M541.09 237.14L557.82 362.34" stroke="rgba(68, 0, 68, 1)" stroke-width="1.5"></path><path d="M541.09 237.14L711.73 214.62" stroke="rgba(68, 0, 68, 1)" stroke-width="1.5"></path><path d="M557.82 362.34L557.82 362.34" stroke="rgba(68, 0, 68, 1)" stroke-width="1.5"></path><path d="M557.82 362.34L494.77 490.11" stroke="rgba(68, 0, 68, 1)" stroke-width="1.5"></path><path d="M557.82 362.34L712.39 383.29" stroke="rgba(68, 0, 68, 1)" stroke-width="1.5"></path><path d="M494.77 490.11L494.77 490.11" stroke="rgba(68, 0, 68, 1)" stroke-width="1.5"></path><path d="M494.77 490.11L651.61 518.87" stroke="rgba(68, 0, 68, 1)" stroke-width="1.5"></path><path d="M494.77 490.11L712.39 383.29" stroke="rgba(68, 0, 68, 1)" stroke-width="1.5"></path><path d="M494.77 490.11L541.09 237.14" stroke="rgba(68, 0, 68, 1)" stroke-width="1.5"></path><path d="M711.73 214.62L711.73 214.62" stroke="rgba(68, 0, 68, 1)" stroke-width="1.5"></path><path d="M711.73 214.62L712.39 383.29" stroke="rgba(68, 0, 68, 1)" stroke-width="1.5"></path><path d="M711.73 214.62L831.67 85.58" stroke="rgba(68, 0, 68, 1)" stroke-width="1.5"></path><path d="M711.73 214.62L825.39 393" stroke="rgba(68, 0, 68, 1)" stroke-width="1.5"></path><path d="M711.73 214.62L557.82 362.34" stroke="rgba(68, 0, 68, 1)" stroke-width="1.5"></path><path d="M711.73 214.62L950.43 87.61" stroke="rgba(68, 0, 68, 1)" stroke-width="1.5"></path><path d="M712.39 383.29L712.39 383.29" stroke="rgba(68, 0, 68, 1)" stroke-width="1.5"></path><path d="M712.39 383.29L825.39 393" stroke="rgba(68, 0, 68, 1)" stroke-width="1.5"></path><path d="M712.39 383.29L792.87 500.23" stroke="rgba(68, 0, 68, 1)" stroke-width="1.5"></path><path d="M651.61 518.87L651.61 518.87" stroke="rgba(68, 0, 68, 1)" stroke-width="1.5"></path><path d="M651.61 518.87L792.87 500.23" stroke="rgba(68, 0, 68, 1)" stroke-width="1.5"></path><path d="M651.61 518.87L712.39 383.29" stroke="rgba(68, 0, 68, 1)" stroke-width="1.5"></path><path d="M651.61 518.87L557.82 362.34" stroke="rgba(68, 0, 68, 1)" stroke-width="1.5"></path><path d="M855.57 -87.34L855.57 -87.34" stroke="rgba(68, 0, 68, 1)" stroke-width="1.5"></path><path d="M855.57 -87.34L975.27 -38.65" stroke="rgba(68, 0, 68, 1)" stroke-width="1.5"></path><path d="M855.57 -87.34L831.67 85.58" stroke="rgba(68, 0, 68, 1)" stroke-width="1.5"></path><path d="M855.57 -87.34L950.43 87.61" stroke="rgba(68, 0, 68, 1)" stroke-width="1.5"></path><path d="M831.67 85.58L831.67 85.58" stroke="rgba(68, 0, 68, 1)" stroke-width="1.5"></path><path d="M831.67 85.58L950.43 87.61" stroke="rgba(68, 0, 68, 1)" stroke-width="1.5"></path><path d="M831.67 85.58L975.27 -38.65" stroke="rgba(68, 0, 68, 1)" stroke-width="1.5"></path><path d="M831.67 85.58L982.64 232.89" stroke="rgba(68, 0, 68, 1)" stroke-width="1.5"></path><path d="M825.39 393L825.39 393" stroke="rgba(68, 0, 68, 1)" stroke-width="1.5"></path><path d="M825.39 393L792.87 500.23" stroke="rgba(68, 0, 68, 1)" stroke-width="1.5"></path><path d="M825.39 393L949.67 348.16" stroke="rgba(68, 0, 68, 1)" stroke-width="1.5"></path><path d="M792.87 500.23L792.87 500.23" stroke="rgba(68, 0, 68, 1)" stroke-width="1.5"></path><path d="M975.27 -38.65L975.27 -38.65" stroke="rgba(68, 0, 68, 1)" stroke-width="1.5"></path><path d="M975.27 -38.65L950.43 87.61" stroke="rgba(68, 0, 68, 1)" stroke-width="1.5"></path><path d="M975.27 -38.65L1125.03 -102" stroke="rgba(68, 0, 68, 1)" stroke-width="1.5"></path><path d="M975.27 -38.65L1115.93 59.56" stroke="rgba(68, 0, 68, 1)" stroke-width="1.5"></path><path d="M950.43 87.61L950.43 87.61" stroke="rgba(68, 0, 68, 1)" stroke-width="1.5"></path><path d="M950.43 87.61L982.64 232.89" stroke="rgba(68, 0, 68, 1)" stroke-width="1.5"></path><path d="M950.43 87.61L1115.93 59.56" stroke="rgba(68, 0, 68, 1)" stroke-width="1.5"></path><path d="M982.64 232.89L982.64 232.89" stroke="rgba(68, 0, 68, 1)" stroke-width="1.5"></path><path d="M982.64 232.89L949.67 348.16" stroke="rgba(68, 0, 68, 1)" stroke-width="1.5"></path><path d="M982.64 232.89L1128.83 209.72" stroke="rgba(68, 0, 68, 1)" stroke-width="1.5"></path><path d="M982.64 232.89L1115.93 59.56" stroke="rgba(68, 0, 68, 1)" stroke-width="1.5"></path><path d="M949.67 348.16L949.67 348.16" stroke="rgba(68, 0, 68, 1)" stroke-width="1.5"></path><path d="M994.31 522.77L994.31 522.77" stroke="rgba(68, 0, 68, 1)" stroke-width="1.5"></path><path d="M994.31 522.77L1151.77 537.9" stroke="rgba(68, 0, 68, 1)" stroke-width="1.5"></path><path d="M994.31 522.77L949.67 348.16" stroke="rgba(68, 0, 68, 1)" stroke-width="1.5"></path><path d="M994.31 522.77L792.87 500.23" stroke="rgba(68, 0, 68, 1)" stroke-width="1.5"></path><path d="M994.31 522.77L1153.76 387.98" stroke="rgba(68, 0, 68, 1)" stroke-width="1.5"></path><path d="M1125.03 -102L1125.03 -102" stroke="rgba(68, 0, 68, 1)" stroke-width="1.5"></path><path d="M1125.03 -102L1272.35 -68.59" stroke="rgba(68, 0, 68, 1)" stroke-width="1.5"></path><path d="M1125.03 -102L1115.93 59.56" stroke="rgba(68, 0, 68, 1)" stroke-width="1.5"></path><path d="M1115.93 59.56L1115.93 59.56" stroke="rgba(68, 0, 68, 1)" stroke-width="1.5"></path><path d="M1115.93 59.56L1128.83 209.72" stroke="rgba(68, 0, 68, 1)" stroke-width="1.5"></path><path d="M1128.83 209.72L1128.83 209.72" stroke="rgba(68, 0, 68, 1)" stroke-width="1.5"></path><path d="M1128.83 209.72L1153.76 387.98" stroke="rgba(68, 0, 68, 1)" stroke-width="1.5"></path><path d="M1153.76 387.98L1153.76 387.98" stroke="rgba(68, 0, 68, 1)" stroke-width="1.5"></path><path d="M1153.76 387.98L1253.59 385.01" stroke="rgba(68, 0, 68, 1)" stroke-width="1.5"></path><path d="M1153.76 387.98L1151.77 537.9" stroke="rgba(68, 0, 68, 1)" stroke-width="1.5"></path><path d="M1153.76 387.98L1289.83 509.42" stroke="rgba(68, 0, 68, 1)" stroke-width="1.5"></path><path d="M1153.76 387.98L949.67 348.16" stroke="rgba(68, 0, 68, 1)" stroke-width="1.5"></path><path d="M1151.77 537.9L1151.77 537.9" stroke="rgba(68, 0, 68, 1)" stroke-width="1.5"></path><path d="M1151.77 537.9L1289.83 509.42" stroke="rgba(68, 0, 68, 1)" stroke-width="1.5"></path><path d="M1151.77 537.9L1253.59 385.01" stroke="rgba(68, 0, 68, 1)" stroke-width="1.5"></path><path d="M1151.77 537.9L1420.12 505.09" stroke="rgba(68, 0, 68, 1)" stroke-width="1.5"></path><path d="M1272.35 -68.59L1272.35 -68.59" stroke="rgba(68, 0, 68, 1)" stroke-width="1.5"></path><path d="M1272.35 -68.59L1301.41 52.88" stroke="rgba(68, 0, 68, 1)" stroke-width="1.5"></path><path d="M1272.35 -68.59L1436.92 -110.16" stroke="rgba(68, 0, 68, 1)" stroke-width="1.5"></path><path d="M1272.35 -68.59L1400.76 55.63" stroke="rgba(68, 0, 68, 1)" stroke-width="1.5"></path><path d="M1301.41 52.88L1301.41 52.88" stroke="rgba(68, 0, 68, 1)" stroke-width="1.5"></path><path d="M1301.41 52.88L1400.76 55.63" stroke="rgba(68, 0, 68, 1)" stroke-width="1.5"></path><path d="M1301.41 52.88L1312.03 224.97" stroke="rgba(68, 0, 68, 1)" stroke-width="1.5"></path><path d="M1301.41 52.88L1115.93 59.56" stroke="rgba(68, 0, 68, 1)" stroke-width="1.5"></path><path d="M1301.41 52.88L1436.92 -110.16" stroke="rgba(68, 0, 68, 1)" stroke-width="1.5"></path><path d="M1301.41 52.88L1425.53 225.43" stroke="rgba(68, 0, 68, 1)" stroke-width="1.5"></path><path d="M1312.03 224.97L1312.03 224.97" stroke="rgba(68, 0, 68, 1)" stroke-width="1.5"></path><path d="M1312.03 224.97L1425.53 225.43" stroke="rgba(68, 0, 68, 1)" stroke-width="1.5"></path><path d="M1312.03 224.97L1253.59 385.01" stroke="rgba(68, 0, 68, 1)" stroke-width="1.5"></path><path d="M1253.59 385.01L1253.59 385.01" stroke="rgba(68, 0, 68, 1)" stroke-width="1.5"></path><path d="M1253.59 385.01L1289.83 509.42" stroke="rgba(68, 0, 68, 1)" stroke-width="1.5"></path><path d="M1253.59 385.01L1420.12 505.09" stroke="rgba(68, 0, 68, 1)" stroke-width="1.5"></path><path d="M1253.59 385.01L1128.83 209.72" stroke="rgba(68, 0, 68, 1)" stroke-width="1.5"></path><path d="M1289.83 509.42L1289.83 509.42" stroke="rgba(68, 0, 68, 1)" stroke-width="1.5"></path><path d="M1289.83 509.42L1420.12 505.09" stroke="rgba(68, 0, 68, 1)" stroke-width="1.5"></path><path d="M1436.92 -110.16L1436.92 -110.16" stroke="rgba(68, 0, 68, 1)" stroke-width="1.5"></path><path d="M1436.92 -110.16L1400.76 55.63" stroke="rgba(68, 0, 68, 1)" stroke-width="1.5"></path><path d="M1436.92 -110.16L1611.76 -84.76" stroke="rgba(68, 0, 68, 1)" stroke-width="1.5"></path><path d="M1436.92 -110.16L1552.28 50.18" stroke="rgba(68, 0, 68, 1)" stroke-width="1.5"></path><path d="M1436.92 -110.16L1125.03 -102" stroke="rgba(68, 0, 68, 1)" stroke-width="1.5"></path><path d="M1400.76 55.63L1400.76 55.63" stroke="rgba(68, 0, 68, 1)" stroke-width="1.5"></path><path d="M1425.53 225.43L1425.53 225.43" stroke="rgba(68, 0, 68, 1)" stroke-width="1.5"></path><path d="M1425.53 225.43L1563.33 246.94" stroke="rgba(68, 0, 68, 1)" stroke-width="1.5"></path><path d="M1425.53 225.43L1400.76 55.63" stroke="rgba(68, 0, 68, 1)" stroke-width="1.5"></path><path d="M1425.53 225.43L1582.57 348.36" stroke="rgba(68, 0, 68, 1)" stroke-width="1.5"></path><path d="M1425.53 225.43L1552.28 50.18" stroke="rgba(68, 0, 68, 1)" stroke-width="1.5"></path><path d="M1420.12 505.09L1420.12 505.09" stroke="rgba(68, 0, 68, 1)" stroke-width="1.5"></path><path d="M1420.12 505.09L1582.57 348.36" stroke="rgba(68, 0, 68, 1)" stroke-width="1.5"></path><path d="M1420.12 505.09L1425.53 225.43" stroke="rgba(68, 0, 68, 1)" stroke-width="1.5"></path><path d="M1611.76 -84.76L1611.76 -84.76" stroke="rgba(68, 0, 68, 1)" stroke-width="1.5"></path><path d="M1611.76 -84.76L1552.28 50.18" stroke="rgba(68, 0, 68, 1)" stroke-width="1.5"></path><path d="M1611.76 -84.76L1400.76 55.63" stroke="rgba(68, 0, 68, 1)" stroke-width="1.5"></path><path d="M1552.28 50.18L1552.28 50.18" stroke="rgba(68, 0, 68, 1)" stroke-width="1.5"></path><path d="M1552.28 50.18L1400.76 55.63" stroke="rgba(68, 0, 68, 1)" stroke-width="1.5"></path><path d="M1563.33 246.94L1563.33 246.94" stroke="rgba(68, 0, 68, 1)" stroke-width="1.5"></path><path d="M1563.33 246.94L1582.57 348.36" stroke="rgba(68, 0, 68, 1)" stroke-width="1.5"></path><path d="M1582.57 348.36L1582.57 348.36" stroke="rgba(68, 0, 68, 1)" stroke-width="1.5"></path><circle r="5" cx="-43.89" cy="256.23" fill="rgba(68, 0, 68, 1)"></circle><circle r="5" cx="-65.54" cy="407.84" fill="rgba(68, 0, 68, 1)"></circle><circle r="5" cx="-55.98" cy="523.35" fill="rgba(68, 0, 68, 1)"></circle><circle r="5" cx="96.12" cy="348.4" fill="rgba(68, 0, 68, 1)"></circle><circle r="5" cx="205.58" cy="234.41" fill="rgba(68, 0, 68, 1)"></circle><circle r="5" cx="219.82" cy="362.33" fill="rgba(68, 0, 68, 1)"></circle><circle r="5" cx="219.92" cy="502.7" fill="rgba(68, 0, 68, 1)"></circle><circle r="5" cx="364.37" cy="236.31" fill="rgba(68, 0, 68, 1)"></circle><circle r="5" cx="356.86" cy="384.24" fill="rgba(68, 0, 68, 1)"></circle><circle r="5" cx="402.6" cy="558.95" fill="rgba(68, 0, 68, 1)"></circle><circle r="5" cx="541.09" cy="237.14" fill="rgba(68, 0, 68, 1)"></circle><circle r="5" cx="557.82" cy="362.34" fill="rgba(68, 0, 68, 1)"></circle><circle r="5" cx="494.77" cy="490.11" fill="rgba(68, 0, 68, 1)"></circle><circle r="5" cx="711.73" cy="214.62" fill="rgba(68, 0, 68, 1)"></circle><circle r="5" cx="712.39" cy="383.29" fill="rgba(68, 0, 68, 1)"></circle><circle r="5" cx="651.61" cy="518.87" fill="rgba(68, 0, 68, 1)"></circle><circle r="5" cx="855.57" cy="-87.34" fill="rgba(68, 0, 68, 1)"></circle><circle r="5" cx="831.67" cy="85.58" fill="rgba(68, 0, 68, 1)"></circle><circle r="5" cx="825.39" cy="393" fill="rgba(68, 0, 68, 1)"></circle><circle r="5" cx="792.87" cy="500.23" fill="rgba(68, 0, 68, 1)"></circle><circle r="5" cx="975.27" cy="-38.65" fill="rgba(68, 0, 68, 1)"></circle><circle r="5" cx="950.43" cy="87.61" fill="rgba(68, 0, 68, 1)"></circle><circle r="5" cx="982.64" cy="232.89" fill="rgba(68, 0, 68, 1)"></circle><circle r="5" cx="949.67" cy="348.16" fill="rgba(68, 0, 68, 1)"></circle><circle r="5" cx="994.31" cy="522.77" fill="rgba(68, 0, 68, 1)"></circle><circle r="5" cx="1125.03" cy="-102" fill="rgba(68, 0, 68, 1)"></circle><circle r="5" cx="1115.93" cy="59.56" fill="rgba(68, 0, 68, 1)"></circle><circle r="5" cx="1128.83" cy="209.72" fill="rgba(68, 0, 68, 1)"></circle><circle r="5" cx="1153.76" cy="387.98" fill="rgba(68, 0, 68, 1)"></circle><circle r="5" cx="1151.77" cy="537.9" fill="rgba(68, 0, 68, 1)"></circle><circle r="5" cx="1272.35" cy="-68.59" fill="rgba(68, 0, 68, 1)"></circle><circle r="5" cx="1301.41" cy="52.88" fill="rgba(68, 0, 68, 1)"></circle><circle r="5" cx="1312.03" cy="224.97" fill="rgba(68, 0, 68, 1)"></circle><circle r="5" cx="1253.59" cy="385.01" fill="rgba(68, 0, 68, 1)"></circle><circle r="5" cx="1289.83" cy="509.42" fill="rgba(68, 0, 68, 1)"></circle><circle r="5" cx="1436.92" cy="-110.16" fill="rgba(68, 0, 68, 1)"></circle><circle r="5" cx="1400.76" cy="55.63" fill="rgba(68, 0, 68, 1)"></circle><circle r="5" cx="1425.53" cy="225.43" fill="rgba(68, 0, 68, 1)"></circle><circle r="5" cx="1420.12" cy="505.09" fill="rgba(68, 0, 68, 1)"></circle><circle r="5" cx="1611.76" cy="-84.76" fill="rgba(68, 0, 68, 1)"></circle><circle r="5" cx="1552.28" cy="50.18" fill="rgba(68, 0, 68, 1)"></circle><circle r="5" cx="1563.33" cy="246.94" fill="rgba(68, 0, 68, 1)"></circle><circle r="5" cx="1582.57" cy="348.36" fill="rgba(68, 0, 68, 1)"></circle><path d="M-91.78 558.29L-91.78 558.29" stroke="hsl(300, 100%, 21.7%)" stroke-width="1.5"></path><path d="M-91.78 558.29L43.2 397.13" stroke="hsl(300, 100%, 21.7%)" stroke-width="1.5"></path><path d="M-91.78 558.29L-107.68 343.46" stroke="hsl(300, 100%, 21.7%)" stroke-width="1.5"></path><path d="M-91.78 558.29L246.34 560.98" stroke="hsl(300, 100%, 21.7%)" stroke-width="1.5"></path><path d="M833.08 214.71L833.08 214.71" stroke="hsl(300, 100%, 21.7%)" stroke-width="1.5"></path><path d="M833.08 214.71L845.61 347.03" stroke="hsl(300, 100%, 21.7%)" stroke-width="1.5"></path><path d="M833.08 214.71L1000.98 241.06" stroke="hsl(300, 100%, 21.7%)" stroke-width="1.5"></path><path d="M833.08 214.71L1090.21 107.22" stroke="hsl(300, 100%, 21.7%)" stroke-width="1.5"></path><path d="M833.08 214.71L834.4 532.95" stroke="hsl(300, 100%, 21.7%)" stroke-width="1.5"></path><path d="M833.08 214.71L1111.03 378.01" stroke="hsl(300, 100%, 21.7%)" stroke-width="1.5"></path><path d="M833.08 214.71L538.66 375.59" stroke="hsl(300, 100%, 21.7%)" stroke-width="1.5"></path><path d="M1012.48 513.22L1012.48 513.22" stroke="hsl(300, 100%, 21.7%)" stroke-width="1.5"></path><path d="M1012.48 513.22L1140.25 503.64" stroke="hsl(300, 100%, 21.7%)" stroke-width="1.5"></path><path d="M1012.48 513.22L1111.03 378.01" stroke="hsl(300, 100%, 21.7%)" stroke-width="1.5"></path><path d="M1012.48 513.22L834.4 532.95" stroke="hsl(300, 100%, 21.7%)" stroke-width="1.5"></path><path d="M1012.48 513.22L845.61 347.03" stroke="hsl(300, 100%, 21.7%)" stroke-width="1.5"></path><path d="M1140.25 503.64L1140.25 503.64" stroke="hsl(300, 100%, 21.7%)" stroke-width="1.5"></path><path d="M1140.25 503.64L1111.03 378.01" stroke="hsl(300, 100%, 21.7%)" stroke-width="1.5"></path><path d="M1140.25 503.64L1291.55 506.92" stroke="hsl(300, 100%, 21.7%)" stroke-width="1.5"></path><path d="M1140.25 503.64L1395.26 497.97" stroke="hsl(300, 100%, 21.7%)" stroke-width="1.5"></path><path d="M1140.25 503.64L1403.63 366.83" stroke="hsl(300, 100%, 21.7%)" stroke-width="1.5"></path><path d="M1140.25 503.64L1000.98 241.06" stroke="hsl(300, 100%, 21.7%)" stroke-width="1.5"></path><path d="M1274.65 80.92L1274.65 80.92" stroke="hsl(300, 100%, 21.7%)" stroke-width="1.5"></path><path d="M1274.65 80.92L1272.26 199.63" stroke="hsl(300, 100%, 21.7%)" stroke-width="1.5"></path><path d="M1274.65 80.92L1239.01 -39.13" stroke="hsl(300, 100%, 21.7%)" stroke-width="1.5"></path><path d="M1274.65 80.92L1400.66 39.21" stroke="hsl(300, 100%, 21.7%)" stroke-width="1.5"></path><path d="M1274.65 80.92L1090.21 107.22" stroke="hsl(300, 100%, 21.7%)" stroke-width="1.5"></path><path d="M1553.22 -99.12L1553.22 -99.12" stroke="hsl(300, 100%, 21.7%)" stroke-width="1.5"></path><path d="M1553.22 -99.12L1454.01 -58.72" stroke="hsl(300, 100%, 21.7%)" stroke-width="1.5"></path><path d="M1553.22 -99.12L1585.43 53.73" stroke="hsl(300, 100%, 21.7%)" stroke-width="1.5"></path><path d="M1553.22 -99.12L1400.66 39.21" stroke="hsl(300, 100%, 21.7%)" stroke-width="1.5"></path><path d="M1553.22 -99.12L1239.01 -39.13" stroke="hsl(300, 100%, 21.7%)" stroke-width="1.5"></path><path d="M1553.22 -99.12L1274.65 80.92" stroke="hsl(300, 100%, 21.7%)" stroke-width="1.5"></path><path d="M1553.22 -99.12L1579.17 240.33" stroke="hsl(300, 100%, 21.7%)" stroke-width="1.5"></path><path d="M-107.68 343.46L-107.68 343.46" stroke="hsl(300, 100%, 21.7%)" stroke-width="1.5"></path><path d="M-107.68 343.46L43.2 397.13" stroke="hsl(300, 100%, 21.7%)" stroke-width="1.5"></path><path d="M43.2 397.13L43.2 397.13" stroke="hsl(300, 100%, 21.7%)" stroke-width="1.5"></path><path d="M43.2 397.13L192.61 337.87" stroke="hsl(300, 100%, 21.7%)" stroke-width="1.5"></path><path d="M43.2 397.13L246.34 560.98" stroke="hsl(300, 100%, 21.7%)" stroke-width="1.5"></path><path d="M192.61 337.87L192.61 337.87" stroke="hsl(300, 100%, 21.7%)" stroke-width="1.5"></path><path d="M192.61 337.87L351.72 381.41" stroke="hsl(300, 100%, 21.7%)" stroke-width="1.5"></path><path d="M246.34 560.98L246.34 560.98" stroke="hsl(300, 100%, 21.7%)" stroke-width="1.5"></path><path d="M246.34 560.98L351.72 381.41" stroke="hsl(300, 100%, 21.7%)" stroke-width="1.5"></path><path d="M246.34 560.98L192.61 337.87" stroke="hsl(300, 100%, 21.7%)" stroke-width="1.5"></path><path d="M246.34 560.98L542.26 516.24" stroke="hsl(300, 100%, 21.7%)" stroke-width="1.5"></path><path d="M351.72 381.41L351.72 381.41" stroke="hsl(300, 100%, 21.7%)" stroke-width="1.5"></path><path d="M351.72 381.41L538.66 375.59" stroke="hsl(300, 100%, 21.7%)" stroke-width="1.5"></path><path d="M351.72 381.41L542.26 516.24" stroke="hsl(300, 100%, 21.7%)" stroke-width="1.5"></path><path d="M351.72 381.41L43.2 397.13" stroke="hsl(300, 100%, 21.7%)" stroke-width="1.5"></path><path d="M538.66 375.59L538.66 375.59" stroke="hsl(300, 100%, 21.7%)" stroke-width="1.5"></path><path d="M538.66 375.59L542.26 516.24" stroke="hsl(300, 100%, 21.7%)" stroke-width="1.5"></path><path d="M538.66 375.59L685.82 561.45" stroke="hsl(300, 100%, 21.7%)" stroke-width="1.5"></path><path d="M538.66 375.59L845.61 347.03" stroke="hsl(300, 100%, 21.7%)" stroke-width="1.5"></path><path d="M538.66 375.59L834.4 532.95" stroke="hsl(300, 100%, 21.7%)" stroke-width="1.5"></path><path d="M542.26 516.24L542.26 516.24" stroke="hsl(300, 100%, 21.7%)" stroke-width="1.5"></path><path d="M542.26 516.24L685.82 561.45" stroke="hsl(300, 100%, 21.7%)" stroke-width="1.5"></path><path d="M542.26 516.24L834.4 532.95" stroke="hsl(300, 100%, 21.7%)" stroke-width="1.5"></path><path d="M685.82 561.45L685.82 561.45" stroke="hsl(300, 100%, 21.7%)" stroke-width="1.5"></path><path d="M685.82 561.45L834.4 532.95" stroke="hsl(300, 100%, 21.7%)" stroke-width="1.5"></path><path d="M685.82 561.45L845.61 347.03" stroke="hsl(300, 100%, 21.7%)" stroke-width="1.5"></path><path d="M685.82 561.45L1012.48 513.22" stroke="hsl(300, 100%, 21.7%)" stroke-width="1.5"></path><path d="M685.82 561.45L833.08 214.71" stroke="hsl(300, 100%, 21.7%)" stroke-width="1.5"></path><path d="M845.61 347.03L845.61 347.03" stroke="hsl(300, 100%, 21.7%)" stroke-width="1.5"></path><path d="M845.61 347.03L834.4 532.95" stroke="hsl(300, 100%, 21.7%)" stroke-width="1.5"></path><path d="M845.61 347.03L1000.98 241.06" stroke="hsl(300, 100%, 21.7%)" stroke-width="1.5"></path><path d="M834.4 532.95L834.4 532.95" stroke="hsl(300, 100%, 21.7%)" stroke-width="1.5"></path><path d="M1000.98 241.06L1000.98 241.06" stroke="hsl(300, 100%, 21.7%)" stroke-width="1.5"></path><path d="M1000.98 241.06L1090.21 107.22" stroke="hsl(300, 100%, 21.7%)" stroke-width="1.5"></path><path d="M1000.98 241.06L1111.03 378.01" stroke="hsl(300, 100%, 21.7%)" stroke-width="1.5"></path><path d="M1138.41 -46.98L1138.41 -46.98" stroke="hsl(300, 100%, 21.7%)" stroke-width="1.5"></path><path d="M1138.41 -46.98L1239.01 -39.13" stroke="hsl(300, 100%, 21.7%)" stroke-width="1.5"></path><path d="M1138.41 -46.98L1090.21 107.22" stroke="hsl(300, 100%, 21.7%)" stroke-width="1.5"></path><path d="M1138.41 -46.98L1274.65 80.92" stroke="hsl(300, 100%, 21.7%)" stroke-width="1.5"></path><path d="M1090.21 107.22L1090.21 107.22" stroke="hsl(300, 100%, 21.7%)" stroke-width="1.5"></path><path d="M1111.03 378.01L1111.03 378.01" stroke="hsl(300, 100%, 21.7%)" stroke-width="1.5"></path><path d="M1111.03 378.01L1291.55 506.92" stroke="hsl(300, 100%, 21.7%)" stroke-width="1.5"></path><path d="M1111.03 378.01L1272.26 199.63" stroke="hsl(300, 100%, 21.7%)" stroke-width="1.5"></path><path d="M1239.01 -39.13L1239.01 -39.13" stroke="hsl(300, 100%, 21.7%)" stroke-width="1.5"></path><path d="M1239.01 -39.13L1400.66 39.21" stroke="hsl(300, 100%, 21.7%)" stroke-width="1.5"></path><path d="M1239.01 -39.13L1090.21 107.22" stroke="hsl(300, 100%, 21.7%)" stroke-width="1.5"></path><path d="M1272.26 199.63L1272.26 199.63" stroke="hsl(300, 100%, 21.7%)" stroke-width="1.5"></path><path d="M1272.26 199.63L1442.49 236.04" stroke="hsl(300, 100%, 21.7%)" stroke-width="1.5"></path><path d="M1272.26 199.63L1090.21 107.22" stroke="hsl(300, 100%, 21.7%)" stroke-width="1.5"></path><path d="M1272.26 199.63L1400.66 39.21" stroke="hsl(300, 100%, 21.7%)" stroke-width="1.5"></path><path d="M1291.55 506.92L1291.55 506.92" stroke="hsl(300, 100%, 21.7%)" stroke-width="1.5"></path><path d="M1291.55 506.92L1395.26 497.97" stroke="hsl(300, 100%, 21.7%)" stroke-width="1.5"></path><path d="M1291.55 506.92L1403.63 366.83" stroke="hsl(300, 100%, 21.7%)" stroke-width="1.5"></path><path d="M1454.01 -58.72L1454.01 -58.72" stroke="hsl(300, 100%, 21.7%)" stroke-width="1.5"></path><path d="M1454.01 -58.72L1400.66 39.21" stroke="hsl(300, 100%, 21.7%)" stroke-width="1.5"></path><path d="M1454.01 -58.72L1585.43 53.73" stroke="hsl(300, 100%, 21.7%)" stroke-width="1.5"></path><path d="M1454.01 -58.72L1239.01 -39.13" stroke="hsl(300, 100%, 21.7%)" stroke-width="1.5"></path><path d="M1454.01 -58.72L1274.65 80.92" stroke="hsl(300, 100%, 21.7%)" stroke-width="1.5"></path><path d="M1400.66 39.21L1400.66 39.21" stroke="hsl(300, 100%, 21.7%)" stroke-width="1.5"></path><path d="M1400.66 39.21L1585.43 53.73" stroke="hsl(300, 100%, 21.7%)" stroke-width="1.5"></path><path d="M1400.66 39.21L1442.49 236.04" stroke="hsl(300, 100%, 21.7%)" stroke-width="1.5"></path><path d="M1442.49 236.04L1442.49 236.04" stroke="hsl(300, 100%, 21.7%)" stroke-width="1.5"></path><path d="M1442.49 236.04L1403.63 366.83" stroke="hsl(300, 100%, 21.7%)" stroke-width="1.5"></path><path d="M1442.49 236.04L1579.17 240.33" stroke="hsl(300, 100%, 21.7%)" stroke-width="1.5"></path><path d="M1403.63 366.83L1403.63 366.83" stroke="hsl(300, 100%, 21.7%)" stroke-width="1.5"></path><path d="M1403.63 366.83L1395.26 497.97" stroke="hsl(300, 100%, 21.7%)" stroke-width="1.5"></path><path d="M1403.63 366.83L1572.66 398.61" stroke="hsl(300, 100%, 21.7%)" stroke-width="1.5"></path><path d="M1403.63 366.83L1272.26 199.63" stroke="hsl(300, 100%, 21.7%)" stroke-width="1.5"></path><path d="M1395.26 497.97L1395.26 497.97" stroke="hsl(300, 100%, 21.7%)" stroke-width="1.5"></path><path d="M1395.26 497.97L1572.62 516.44" stroke="hsl(300, 100%, 21.7%)" stroke-width="1.5"></path><path d="M1395.26 497.97L1572.66 398.61" stroke="hsl(300, 100%, 21.7%)" stroke-width="1.5"></path><path d="M1395.26 497.97L1442.49 236.04" stroke="hsl(300, 100%, 21.7%)" stroke-width="1.5"></path><path d="M1585.43 53.73L1585.43 53.73" stroke="hsl(300, 100%, 21.7%)" stroke-width="1.5"></path><path d="M1579.17 240.33L1579.17 240.33" stroke="hsl(300, 100%, 21.7%)" stroke-width="1.5"></path><path d="M1579.17 240.33L1572.66 398.61" stroke="hsl(300, 100%, 21.7%)" stroke-width="1.5"></path><path d="M1572.66 398.61L1572.66 398.61" stroke="hsl(300, 100%, 21.7%)" stroke-width="1.5"></path><path d="M1572.66 398.61L1572.62 516.44" stroke="hsl(300, 100%, 21.7%)" stroke-width="1.5"></path><path d="M1572.62 516.44L1572.62 516.44" stroke="hsl(300, 100%, 21.7%)" stroke-width="1.5"></path><circle r="25" cx="-91.78" cy="558.29" fill="url(#SvgjsRadialGradient1955)"></circle><circle r="25" cx="833.08" cy="214.71" fill="url(#SvgjsRadialGradient1955)"></circle><circle r="25" cx="1012.48" cy="513.22" fill="url(#SvgjsRadialGradient1955)"></circle><circle r="25" cx="1140.25" cy="503.64" fill="url(#SvgjsRadialGradient1955)"></circle><circle r="25" cx="1274.65" cy="80.92" fill="url(#SvgjsRadialGradient1955)"></circle><circle r="25" cx="1553.22" cy="-99.12" fill="url(#SvgjsRadialGradient1955)"></circle><circle r="5" cx="-107.68" cy="343.46" fill="#aa80aa"></circle><circle r="5" cx="43.2" cy="397.13" fill="#aa80aa"></circle><circle r="5" cx="192.61" cy="337.87" fill="#aa80aa"></circle><circle r="5" cx="246.34" cy="560.98" fill="#aa80aa"></circle><circle r="5" cx="351.72" cy="381.41" fill="#aa80aa"></circle><circle r="5" cx="538.66" cy="375.59" fill="#aa80aa"></circle><circle r="5" cx="542.26" cy="516.24" fill="#aa80aa"></circle><circle r="5" cx="685.82" cy="561.45" fill="#aa80aa"></circle><circle r="5" cx="845.61" cy="347.03" fill="#aa80aa"></circle><circle r="5" cx="834.4" cy="532.95" fill="#aa80aa"></circle><circle r="5" cx="1000.98" cy="241.06" fill="#aa80aa"></circle><circle r="5" cx="1138.41" cy="-46.98" fill="#aa80aa"></circle><circle r="5" cx="1090.21" cy="107.22" fill="#aa80aa"></circle><circle r="5" cx="1111.03" cy="378.01" fill="#aa80aa"></circle><circle r="5" cx="1239.01" cy="-39.13" fill="#aa80aa"></circle><circle r="5" cx="1272.26" cy="199.63" fill="#aa80aa"></circle><circle r="5" cx="1291.55" cy="506.92" fill="#aa80aa"></circle><circle r="5" cx="1454.01" cy="-58.72" fill="#aa80aa"></circle><circle r="5" cx="1400.66" cy="39.21" fill="#aa80aa"></circle><circle r="5" cx="1442.49" cy="236.04" fill="#aa80aa"></circle><circle r="5" cx="1403.63" cy="366.83" fill="#aa80aa"></circle><circle r="5" cx="1395.26" cy="497.97" fill="#aa80aa"></circle><circle r="5" cx="1585.43" cy="53.73" fill="#aa80aa"></circle><circle r="5" cx="1579.17" cy="240.33" fill="#aa80aa"></circle><circle r="5" cx="1572.66" cy="398.61" fill="#aa80aa"></circle><circle r="5" cx="1572.62" cy="516.44" fill="#aa80aa"></circle></g><defs><mask id="SvgjsMask1953"><rect width="1400" height="376" fill="#ffffff"></rect></mask><linearGradient x1="50%" y1="0%" x2="50%" y2="100%" gradientUnits="userSpaceOnUse" id="SvgjsLinearGradient1954"><stop stop-color="rgba(51, 0, 51, 1)" offset="0.04"></stop><stop stop-color="rgba(255, 255, 255, 1)" offset="1"></stop></linearGradient><radialGradient id="SvgjsRadialGradient1955"><stop stop-color="#ffffff" offset="0.1"></stop><stop stop-color="rgba(85, 0, 85, 1)" offset="0.2"></stop><stop stop-color="rgba(85, 0, 85, 0)" offset="1"></stop></radialGradient></defs></svg>